# Blender 5.0.1
# www.blender.org
mtllib SwordShield.mtl
o Sword_and_shield
v 0.925486 0.422198 -0.162479
v 0.882844 0.401137 -0.178836
v 0.790612 0.374090 -0.167057
v 0.702820 0.356899 -0.134042
v 0.670894 0.359636 -0.099131
v 0.713537 0.380696 -0.082774
v 0.805768 0.407744 -0.094553
v 0.893561 0.424934 -0.127568
v 0.879640 0.337156 -0.096643
v 0.828700 0.328053 -0.075265
v 0.774932 0.311960 -0.069228
v 0.749834 0.298303 -0.082069
v 0.768107 0.295083 -0.106266
v 0.819047 0.304185 -0.127644
v 0.872815 0.320279 -0.133681
v 0.897913 0.333936 -0.120840
v 0.382442 1.883421 -0.733136
v 0.352658 1.867955 -0.746490
v 0.287874 1.849264 -0.737431
v 0.226038 1.838299 -0.711267
v 0.203375 1.841481 -0.683324
v 0.233158 1.856948 -0.669970
v 0.297942 1.875638 -0.679029
v 0.359778 1.886604 -0.705193
v 0.401796 1.910173 -0.748554
v 0.363225 1.890143 -0.765847
v 0.279327 1.865938 -0.754116
v 0.199248 1.851737 -0.720232
v 0.169897 1.855859 -0.684045
v 0.208468 1.875889 -0.666752
v 0.292367 1.900094 -0.678483
v 0.372446 1.914295 -0.712367
v 0.577927 1.988457 -0.814273
v 0.476851 1.935968 -0.859591
v 0.256992 1.872538 -0.828848
v 0.047142 1.835324 -0.740055
v -0.029772 1.846125 -0.645224
v 0.071305 1.898614 -0.599907
v 0.291163 1.962044 -0.630649
v 0.501013 1.999258 -0.719443
v 0.559882 2.041011 -0.834895
v 0.458805 1.988522 -0.880213
v 0.238946 1.925092 -0.849471
v 0.029096 1.887878 -0.760677
v -0.047818 1.898679 -0.665847
v 0.053259 1.951168 -0.620529
v 0.273118 2.014598 -0.651271
v 0.482968 2.051813 -0.740065
v 0.359075 2.017361 -0.789594
v 0.317135 1.990544 -0.823765
v 0.237740 1.966466 -0.818974
v 0.164574 1.954812 -0.781326
v 0.138127 1.965612 -0.728131
v 0.179531 1.993989 -0.694573
v 0.258223 2.020119 -0.700168
v 0.332092 2.029721 -0.737012
v 0.279867 2.060902 -0.795601
v 0.261394 2.048142 -0.811952
v 0.223868 2.035861 -0.810414
v 0.189270 2.031250 -0.791889
v 0.177868 2.037012 -0.767227
v 0.196341 2.049771 -0.750876
v 0.233867 2.062054 -0.752413
v 0.268465 2.066664 -0.770939
v 0.161899 2.495178 -0.970360
v 0.132530 2.472603 -1.000075
v 0.073748 2.452333 -0.999416
v 0.019987 2.446243 -0.968768
v 0.002739 2.457901 -0.926085
v 0.032108 2.480476 -0.896370
v 0.090891 2.500746 -0.897029
v 0.144651 2.506835 -0.927677
v 0.185995 2.531386 -0.991710
v 0.144071 2.499160 -1.034127
v 0.060162 2.470227 -1.033186
v -0.016579 2.461534 -0.989438
v -0.041199 2.478174 -0.928510
v 0.000724 2.510400 -0.886093
v 0.084633 2.539334 -0.887035
v 0.161374 2.548026 -0.930783
v 0.182687 2.540800 -0.995673
v 0.140764 2.508574 -1.038090
v 0.056855 2.479640 -1.037149
v -0.019886 2.470947 -0.993401
v -0.044506 2.487587 -0.932473
v -0.002583 2.519814 -0.890056
v 0.081326 2.548747 -0.890997
v 0.158067 2.557440 -0.934745
v 0.145472 2.567741 -1.002409
v 0.114298 2.546424 -1.027566
v 0.049862 2.525526 -1.023653
v -0.010090 2.517290 -0.992964
v -0.030440 2.526540 -0.953475
v 0.000734 2.547857 -0.928318
v 0.065169 2.568755 -0.932231
v 0.125122 2.576991 -0.962920
v 0.844239 0.256810 -0.078182
v 0.057516 2.547141 -0.977942
v -0.794342 0.995176 -0.301360
v -0.758872 0.797280 -0.220480
v -0.669462 0.612871 -0.150043
v -0.532206 0.454515 -0.094849
v -0.356457 0.333005 -0.058658
v -0.154192 0.256620 -0.043938
v 0.060804 0.230566 -0.051692
v 0.273880 0.256620 -0.081390
v 0.470515 0.333004 -0.131010
v 0.637310 0.454515 -0.197169
v 0.762896 0.612871 -0.275359
v 0.838716 0.797280 -0.360252
v 0.859603 0.995176 -0.446062
v 0.824133 1.193071 -0.526942
v 0.734723 1.377480 -0.597379
v 0.597467 1.535836 -0.652573
v 0.421718 1.657347 -0.688763
v 0.219454 1.733732 -0.703484
v 0.004457 1.759785 -0.695730
v -0.208619 1.733732 -0.666032
v -0.405254 1.657347 -0.616412
v -0.572049 1.535836 -0.550253
v -0.697635 1.377481 -0.472063
v -0.773455 1.193071 -0.387170
v -0.709145 0.995176 -0.308814
v -0.677329 0.817668 -0.236267
v -0.597130 0.652257 -0.173086
v -0.474015 0.510216 -0.123578
v -0.316372 0.401223 -0.091116
v -0.134945 0.332708 -0.077912
v 0.057901 0.309339 -0.084867
v 0.249026 0.332708 -0.111506
v 0.425403 0.401223 -0.156013
v 0.575014 0.510216 -0.215357
v 0.687662 0.652257 -0.285492
v 0.755671 0.817668 -0.361639
v 0.774406 0.995176 -0.438608
v 0.742590 1.172683 -0.511155
v 0.662391 1.338094 -0.574336
v 0.539275 1.480136 -0.623844
v 0.381633 1.589128 -0.656306
v 0.200206 1.657644 -0.669509
v 0.007360 1.681013 -0.662555
v -0.183765 1.657644 -0.635916
v -0.360142 1.589128 -0.591408
v -0.509753 1.480136 -0.532065
v -0.622401 1.338094 -0.461930
v -0.690410 1.172683 -0.385783
v -0.157250 0.954897 -0.318771
v -0.679546 0.806912 -0.261613
v -0.711362 0.984419 -0.334160
v -0.599348 0.641501 -0.198433
v -0.476232 0.499459 -0.148925
v -0.318589 0.390467 -0.116463
v -0.137163 0.321951 -0.103259
v 0.055684 0.298582 -0.110214
v 0.246808 0.321951 -0.136853
v 0.423186 0.390467 -0.181360
v 0.572796 0.499459 -0.240704
v 0.685444 0.641500 -0.310839
v 0.753453 0.806911 -0.386985
v 0.772188 0.984419 -0.463955
v 0.740372 1.161927 -0.536502
v 0.660174 1.327338 -0.599682
v 0.537058 1.469379 -0.649191
v 0.379415 1.578371 -0.681653
v 0.197989 1.646887 -0.694856
v 0.005142 1.670256 -0.687902
v -0.185982 1.646887 -0.661263
v -0.362360 1.578372 -0.616755
v -0.511970 1.469379 -0.557412
v -0.624618 1.327338 -0.487277
v -0.692627 1.161927 -0.411130
v -0.801056 0.962610 -0.378098
v -0.765586 0.764714 -0.297218
v -0.676176 0.580305 -0.226781
v -0.538919 0.421949 -0.171587
v -0.363171 0.300439 -0.135396
v -0.160906 0.224054 -0.120676
v 0.054090 0.198000 -0.128430
v 0.267166 0.224054 -0.158128
v 0.463802 0.300438 -0.207748
v 0.630596 0.421949 -0.273907
v 0.756182 0.580305 -0.352097
v 0.832002 0.764714 -0.436990
v 0.852889 0.962610 -0.522800
v 0.817419 1.160505 -0.603680
v 0.728009 1.344914 -0.674117
v 0.590753 1.503270 -0.729311
v 0.415004 1.624781 -0.765501
v 0.212740 1.701166 -0.780222
v -0.002256 1.727219 -0.772468
v -0.215333 1.701166 -0.742770
v -0.411968 1.624781 -0.693150
v -0.578762 1.503270 -0.626991
v -0.704349 1.344915 -0.548801
v -0.780169 1.160505 -0.463908
v 0.025917 0.962610 -0.450449
v -0.230467 0.933229 -0.313088
v -0.200653 0.871737 -0.289601
v -0.154884 0.818933 -0.271196
v -0.096279 0.778414 -0.259128
v -0.028833 0.752943 -0.254219
v 0.042859 0.744255 -0.256805
v 0.113910 0.752943 -0.266708
v 0.179479 0.778414 -0.283254
v 0.235097 0.818932 -0.305315
v 0.276975 0.871737 -0.331388
v 0.302258 0.933229 -0.359696
v 0.309222 0.999219 -0.388310
v 0.297395 1.065208 -0.415279
v 0.267580 1.126700 -0.438767
v 0.221812 1.179505 -0.457172
v 0.163207 1.220023 -0.469240
v 0.095761 1.245494 -0.474148
v 0.024069 1.254182 -0.471563
v -0.046982 1.245494 -0.461660
v -0.112551 1.220023 -0.445114
v -0.168170 1.179505 -0.423053
v -0.210047 1.126700 -0.396980
v -0.235330 1.065208 -0.368672
v -0.242294 0.999219 -0.340058
v -0.135624 0.910293 -0.301734
v -0.102425 0.871990 -0.288384
v -0.059916 0.842600 -0.279630
v -0.010993 0.824125 -0.276070
v 0.041009 0.817823 -0.277945
v 0.092547 0.824125 -0.285129
v 0.140108 0.842600 -0.297130
v 0.180451 0.871990 -0.313133
v 0.210827 0.910293 -0.332045
v 0.229166 0.954897 -0.352578
v 0.234218 1.002762 -0.373333
v 0.225639 1.050628 -0.392896
v 0.204013 1.095232 -0.409933
v 0.170814 1.133534 -0.423283
v 0.128305 1.162925 -0.432037
v 0.079382 1.181400 -0.435597
v 0.027380 1.187702 -0.433722
v -0.024157 1.181400 -0.426539
v -0.071719 1.162925 -0.414537
v -0.112062 1.133534 -0.398535
v -0.142438 1.095232 -0.379622
v -0.160777 1.050628 -0.359089
v -0.165829 1.002762 -0.338334
v -0.147849 0.970425 -0.287298
v -0.126961 0.927344 -0.270843
v -0.094896 0.890349 -0.257948
v -0.053838 0.861962 -0.249494
v -0.006586 0.844117 -0.246055
v 0.043641 0.838031 -0.247866
v 0.093418 0.844118 -0.254804
v 0.139355 0.861962 -0.266396
v 0.178321 0.890349 -0.281852
v 0.207660 0.927344 -0.300118
v 0.225373 0.970424 -0.319951
v 0.230253 1.016656 -0.339997
v 0.221966 1.062888 -0.358892
v 0.201079 1.105968 -0.375347
v 0.169013 1.142963 -0.388242
v 0.127956 1.171350 -0.396696
v 0.080704 1.189194 -0.400135
v 0.030477 1.195281 -0.398324
v -0.019301 1.189194 -0.391386
v -0.065238 1.171350 -0.379794
v -0.104204 1.142963 -0.364338
v -0.133543 1.105968 -0.346071
v -0.151256 1.062888 -0.326239
v -0.156135 1.016656 -0.306192
v -0.114007 0.994897 -0.253397
v -0.096549 0.958890 -0.239643
v -0.069749 0.927970 -0.228866
v -0.035433 0.904244 -0.221800
v 0.004061 0.889330 -0.218926
v 0.046040 0.884243 -0.220440
v 0.087645 0.889330 -0.226238
v 0.126039 0.904244 -0.235927
v 0.158606 0.927970 -0.248845
v 0.183128 0.958890 -0.264112
v 0.197932 0.994897 -0.280688
v 0.202010 1.033537 -0.297443
v 0.195085 1.072178 -0.313235
v 0.177627 1.108185 -0.326988
v 0.150827 1.139105 -0.337766
v 0.116511 1.162830 -0.344832
v 0.077017 1.177745 -0.347706
v 0.035038 1.182832 -0.346192
v -0.006566 1.177745 -0.340393
v -0.044961 1.162830 -0.330705
v -0.077528 1.139105 -0.317787
v -0.102050 1.108185 -0.302520
v -0.116854 1.072178 -0.285944
v -0.120933 1.033537 -0.269189
v 0.044837 1.054386 -0.234188
v -0.085625 1.007007 -0.246223
v -0.071250 0.977359 -0.234898
v -0.049183 0.951899 -0.226024
v -0.020927 0.932363 -0.220206
v 0.011592 0.920082 -0.217839
v 0.046158 0.915893 -0.219086
v 0.080416 0.920082 -0.223861
v 0.112030 0.932363 -0.231838
v 0.138846 0.951899 -0.242475
v 0.159038 0.977359 -0.255046
v 0.171228 1.007007 -0.268695
v 0.174586 1.038824 -0.282491
v 0.168883 1.070641 -0.295494
v 0.154508 1.100289 -0.306819
v 0.132441 1.125749 -0.315693
v 0.104185 1.145285 -0.321511
v 0.071665 1.157566 -0.323878
v 0.037099 1.161754 -0.322631
v 0.002842 1.157566 -0.317857
v -0.028772 1.145285 -0.309879
v -0.055589 1.125749 -0.299242
v -0.075780 1.100289 -0.286671
v -0.087970 1.070641 -0.273023
v -0.091328 1.038824 -0.259226
v -0.243459 0.993568 -0.353374
v -0.231632 0.927579 -0.326404
v -0.201818 0.866086 -0.302916
v -0.156049 0.813282 -0.284511
v -0.097444 0.772763 -0.272443
v -0.029998 0.747292 -0.267535
v 0.041694 0.738605 -0.270120
v 0.112745 0.747292 -0.280023
v 0.178314 0.772763 -0.296569
v 0.233932 0.813282 -0.318631
v 0.275810 0.866086 -0.344704
v 0.301093 0.927579 -0.373012
v 0.308057 0.993568 -0.401625
v 0.296230 1.059557 -0.428595
v 0.266416 1.121049 -0.452083
v 0.220647 1.173854 -0.470488
v 0.162042 1.214373 -0.482556
v 0.094596 1.239843 -0.487464
v 0.022905 1.248531 -0.484879
v -0.048147 1.239843 -0.474976
v -0.113716 1.214373 -0.458430
v -0.169335 1.173854 -0.436368
v -0.211212 1.121050 -0.410295
v -0.236495 1.059557 -0.381987
v 0.229671 1.169797 -0.554964
v 0.227128 1.157462 -0.584030
v 0.236390 1.135321 -0.540921
v 0.233847 1.122986 -0.569987
v 0.260760 1.107982 -0.531451
v 0.258218 1.095647 -0.560517
v 0.296252 1.095106 -0.529092
v 0.293709 1.082772 -0.558158
v 0.333355 1.100144 -0.534476
v 0.330813 1.087809 -0.563542
v 0.362128 1.121746 -0.546161
v 0.359585 1.109411 -0.575226
v 0.374860 1.154122 -0.561015
v 0.372317 1.141788 -0.590080
v 0.368141 1.188599 -0.575058
v 0.365598 1.176264 -0.604124
v 0.343771 1.215938 -0.584528
v 0.341228 1.203603 -0.613594
v 0.308279 1.228813 -0.586887
v 0.305736 1.216478 -0.615952
v 0.271176 1.223775 -0.581503
v 0.268633 1.211441 -0.610568
v 0.242403 1.202174 -0.569818
v 0.239860 1.189839 -0.598884
v 0.263627 1.135028 -0.577702
v 0.259945 1.153919 -0.585397
v 0.276980 1.120048 -0.572514
v 0.296428 1.112993 -0.571221
v 0.316758 1.115754 -0.574171
v 0.332524 1.127590 -0.580574
v 0.339501 1.145330 -0.588713
v 0.335819 1.164222 -0.596408
v 0.322465 1.179202 -0.601597
v 0.303018 1.186257 -0.602889
v 0.282687 1.183496 -0.599939
v 0.266921 1.171660 -0.593537
v 0.262346 1.128817 -0.592338
v 0.258664 1.147709 -0.600033
v 0.275700 1.113837 -0.587149
v 0.295147 1.106782 -0.585856
v 0.315478 1.109543 -0.588807
v 0.331243 1.121379 -0.595209
v 0.338220 1.139120 -0.603348
v 0.334539 1.158011 -0.611043
v 0.321185 1.172991 -0.616232
v 0.301737 1.180046 -0.617525
v 0.281407 1.177285 -0.614574
v 0.265641 1.165449 -0.608172
v 0.258619 1.104624 -0.619088
v 0.254185 1.119052 -0.633294
v 0.272524 1.092912 -0.609132
v 0.292174 1.087053 -0.606095
v 0.312303 1.088617 -0.610790
v 0.327517 1.097186 -0.621959
v 0.333740 1.110463 -0.636609
v 0.329305 1.124891 -0.650816
v 0.315400 1.136603 -0.660772
v 0.295751 1.142462 -0.663809
v 0.275622 1.140898 -0.659114
v 0.260408 1.132329 -0.647945
v 0.253415 1.064695 -0.640531
v 0.248069 1.072342 -0.659040
v 0.267987 1.057945 -0.627425
v 0.287881 1.053903 -0.623235
v 0.307765 1.053651 -0.629083
v 0.322312 1.057256 -0.643402
v 0.327624 1.063753 -0.662355
v 0.322278 1.071400 -0.680864
v 0.307706 1.078149 -0.693969
v 0.287812 1.082191 -0.698160
v 0.267928 1.082444 -0.692312
v 0.253381 1.078838 -0.677993
v 0.243525 0.979960 -0.658333
v 0.237439 0.981243 -0.678106
v 0.258639 0.977870 -0.644303
v 0.278731 0.975533 -0.639774
v 0.298417 0.973575 -0.645961
v 0.312422 0.972521 -0.661205
v 0.316995 0.972654 -0.681422
v 0.310909 0.973937 -0.701194
v 0.295795 0.976027 -0.715225
v 0.275703 0.978364 -0.719754
v 0.256017 0.980321 -0.713567
v 0.242011 0.981375 -0.698323
v 0.234788 0.899064 -0.658427
v 0.228100 0.894510 -0.677511
v 0.250341 0.901247 -0.644901
v 0.270594 0.900474 -0.640557
v 0.290120 0.896953 -0.646559
v 0.303685 0.891626 -0.661299
v 0.307656 0.885921 -0.680826
v 0.300968 0.881366 -0.699910
v 0.285414 0.879183 -0.713436
v 0.265161 0.879956 -0.717780
v 0.245636 0.883477 -0.711778
v 0.232071 0.888804 -0.697039
v 0.189553 0.723792 -0.362179
v 0.187010 0.711457 -0.391245
v 0.202286 0.756168 -0.377033
v 0.199743 0.743834 -0.406099
v 0.231059 0.777770 -0.388717
v 0.228516 0.765435 -0.417783
v 0.268162 0.782808 -0.394101
v 0.265619 0.770473 -0.423167
v 0.303653 0.769932 -0.391743
v 0.301111 0.757597 -0.420808
v 0.328024 0.742594 -0.382273
v 0.325481 0.730259 -0.411339
v 0.334743 0.708117 -0.368229
v 0.332200 0.695782 -0.397295
v 0.322011 0.675740 -0.353375
v 0.319468 0.663405 -0.382441
v 0.293238 0.654139 -0.341691
v 0.290695 0.641804 -0.370757
v 0.256135 0.649101 -0.336307
v 0.253592 0.636766 -0.365373
v 0.220643 0.661976 -0.338666
v 0.218100 0.649641 -0.367731
v 0.196272 0.689315 -0.348136
v 0.193729 0.676980 -0.377201
v 0.226804 0.725654 -0.400751
v 0.219827 0.707914 -0.392612
v 0.242570 0.737491 -0.407154
v 0.262900 0.740251 -0.410104
v 0.282348 0.733196 -0.408811
v 0.295702 0.718216 -0.403623
v 0.299383 0.699325 -0.395928
v 0.292407 0.681584 -0.387788
v 0.276641 0.669748 -0.381386
v 0.256310 0.666987 -0.378436
v 0.236863 0.674042 -0.379728
v 0.223509 0.689023 -0.384917
v 0.225524 0.719444 -0.415387
v 0.218547 0.701703 -0.407248
v 0.241290 0.731280 -0.421789
v 0.261620 0.734040 -0.424739
v 0.281067 0.726985 -0.423447
v 0.294421 0.712005 -0.418258
v 0.298103 0.693114 -0.410563
v 0.291126 0.675373 -0.402424
v 0.275360 0.663537 -0.396021
v 0.255030 0.660776 -0.393071
v 0.235582 0.667831 -0.394364
v 0.222229 0.682812 -0.399553
v 0.223749 0.716952 -0.451517
v 0.216278 0.697621 -0.451131
v 0.239877 0.729952 -0.452243
v 0.260340 0.733139 -0.453116
v 0.279655 0.725657 -0.453901
v 0.292646 0.709513 -0.454388
v 0.295833 0.689032 -0.454447
v 0.288362 0.669701 -0.454061
v 0.272234 0.656701 -0.453335
v 0.251771 0.653514 -0.452462
v 0.232456 0.660995 -0.451677
v 0.219464 0.677139 -0.451190
v 0.223231 0.729124 -0.495481
v 0.215601 0.711386 -0.503017
v 0.239475 0.740959 -0.490408
v 0.259980 0.743718 -0.489158
v 0.279253 0.736664 -0.492066
v 0.292128 0.721686 -0.498352
v 0.295157 0.702797 -0.506332
v 0.287528 0.685059 -0.513869
v 0.271284 0.673224 -0.518941
v 0.250778 0.670464 -0.520191
v 0.231506 0.677519 -0.517284
v 0.218630 0.692497 -0.510997
v 0.225162 0.776460 -0.571775
v 0.217590 0.760569 -0.582720
v 0.241364 0.786942 -0.564207
v 0.261854 0.789206 -0.562044
v 0.281142 0.782647 -0.565865
v 0.294059 0.769021 -0.574646
v 0.297146 0.751980 -0.586036
v 0.289573 0.736089 -0.596981
v 0.273372 0.725607 -0.604549
v 0.252882 0.723343 -0.606713
v 0.233594 0.729902 -0.602891
v 0.220676 0.743528 -0.594110
v 0.228827 0.832936 -0.630133
v 0.221574 0.821963 -0.646153
v 0.244795 0.839818 -0.618849
v 0.265200 0.840765 -0.615326
v 0.284573 0.835523 -0.620507
v 0.297725 0.825497 -0.633004
v 0.301130 0.813374 -0.649468
v 0.293877 0.802401 -0.665488
v 0.277910 0.795519 -0.676772
v 0.257505 0.794572 -0.680295
v 0.238132 0.799814 -0.675114
v 0.224980 0.809839 -0.662617
v -0.331618 1.104548 -0.496312
v -0.333581 1.095024 -0.518756
v -0.321393 1.079050 -0.486385
v -0.323356 1.069525 -0.508829
v -0.298907 1.061260 -0.480803
v -0.300871 1.051735 -0.503247
v -0.270185 1.055945 -0.481061
v -0.272149 1.046421 -0.503505
v -0.242923 1.064530 -0.487089
v -0.244887 1.055006 -0.509533
v -0.224426 1.084714 -0.497273
v -0.226389 1.075190 -0.519717
v -0.219650 1.111089 -0.508884
v -0.221613 1.101564 -0.531328
v -0.229874 1.136588 -0.518810
v -0.231838 1.127063 -0.541254
v -0.252360 1.154378 -0.524393
v -0.254324 1.144853 -0.546837
v -0.281082 1.159692 -0.524135
v -0.283046 1.150168 -0.546579
v -0.308344 1.151108 -0.518107
v -0.310308 1.141583 -0.540551
v -0.326841 1.130923 -0.507923
v -0.328805 1.121398 -0.530367
v -0.302671 1.082530 -0.516158
v -0.308273 1.096502 -0.521598
v -0.290350 1.072782 -0.513100
v -0.274612 1.069870 -0.513241
v -0.259674 1.074574 -0.516544
v -0.249538 1.085634 -0.522124
v -0.246921 1.100086 -0.528486
v -0.252524 1.114058 -0.533925
v -0.264845 1.123806 -0.536984
v -0.280583 1.126718 -0.536843
v -0.295521 1.122014 -0.533540
v -0.305656 1.110954 -0.527960
v -0.303659 1.077734 -0.527460
v -0.309262 1.091706 -0.532899
v -0.291338 1.067986 -0.524401
v -0.275600 1.065074 -0.524542
v -0.260662 1.069778 -0.527845
v -0.250527 1.080838 -0.533425
v -0.247910 1.095290 -0.539787
v -0.253512 1.109262 -0.545226
v -0.265833 1.119010 -0.548285
v -0.281571 1.121922 -0.548144
v -0.296509 1.117218 -0.544841
v -0.306645 1.106158 -0.539261
v -0.304899 1.059012 -0.548241
v -0.310866 1.069532 -0.558725
v -0.292311 1.051792 -0.541489
v -0.276475 1.049805 -0.540279
v -0.261635 1.053584 -0.544934
v -0.251767 1.062116 -0.554207
v -0.249514 1.073116 -0.565614
v -0.255482 1.083636 -0.576098
v -0.268070 1.090856 -0.582850
v -0.283905 1.092843 -0.584060
v -0.298746 1.089064 -0.579405
v -0.308614 1.080532 -0.570132
v -0.304985 1.028082 -0.565102
v -0.311024 1.033350 -0.578957
v -0.292345 1.024705 -0.555882
v -0.276490 1.024125 -0.553768
v -0.261669 1.026497 -0.559326
v -0.251853 1.031186 -0.571067
v -0.249672 1.036934 -0.585845
v -0.255711 1.042202 -0.599700
v -0.268352 1.045579 -0.608920
v -0.284207 1.046159 -0.611034
v -0.299028 1.043787 -0.605475
v -0.308844 1.039099 -0.593734
v -0.302777 0.962407 -0.579606
v -0.308644 0.962742 -0.594494
v -0.290263 0.962641 -0.569631
v -0.274454 0.963383 -0.567240
v -0.259587 0.964433 -0.573075
v -0.249645 0.965511 -0.585572
v -0.247292 0.966326 -0.601383
v -0.253159 0.966662 -0.616271
v -0.265674 0.966427 -0.626247
v -0.281482 0.965685 -0.628637
v -0.296350 0.964635 -0.622802
v -0.306292 0.963558 -0.610305
v -0.299211 0.899685 -0.580472
v -0.304760 0.895493 -0.594888
v -0.286929 0.903233 -0.570842
v -0.271205 0.905188 -0.568578
v -0.256253 0.905025 -0.574287
v -0.246078 0.902788 -0.586438
v -0.243408 0.899077 -0.601777
v -0.248957 0.894886 -0.616193
v -0.261239 0.891337 -0.625823
v -0.276963 0.889382 -0.628087
v -0.291916 0.889545 -0.622379
v -0.302090 0.891782 -0.610227
v -0.295269 0.758480 -0.352628
v -0.297232 0.748955 -0.375072
v -0.290492 0.784855 -0.364239
v -0.292456 0.775330 -0.386683
v -0.271995 0.805039 -0.374423
v -0.273959 0.795514 -0.396867
v -0.244733 0.813624 -0.380451
v -0.246697 0.804099 -0.402895
v -0.216011 0.808309 -0.380709
v -0.217975 0.798785 -0.403153
v -0.193525 0.790519 -0.375126
v -0.195489 0.780995 -0.397570
v -0.183301 0.765021 -0.365200
v -0.185264 0.755496 -0.387644
v -0.188077 0.738646 -0.353589
v -0.190040 0.729121 -0.376033
v -0.206574 0.718462 -0.343405
v -0.208538 0.708937 -0.365849
v -0.233836 0.709877 -0.337377
v -0.235800 0.700352 -0.359821
v -0.262558 0.715192 -0.337119
v -0.264522 0.705667 -0.359563
v -0.285044 0.732982 -0.342702
v -0.287007 0.723457 -0.365146
v -0.269307 0.764886 -0.384276
v -0.271924 0.750434 -0.377914
v -0.259172 0.775945 -0.389856
v -0.244234 0.780649 -0.393159
v -0.228496 0.777737 -0.393300
v -0.216175 0.767989 -0.390241
v -0.210572 0.754018 -0.384802
v -0.213189 0.739566 -0.378440
v -0.223325 0.728506 -0.372860
v -0.238263 0.723802 -0.369557
v -0.254001 0.726714 -0.369416
v -0.266322 0.736462 -0.372474
v -0.270296 0.760090 -0.395577
v -0.272913 0.745638 -0.389215
v -0.260160 0.771149 -0.401157
v -0.245223 0.775854 -0.404460
v -0.229484 0.772941 -0.404601
v -0.217163 0.763193 -0.401542
v -0.211561 0.749222 -0.396103
v -0.214178 0.734770 -0.389741
v -0.224313 0.723710 -0.384161
v -0.239252 0.719006 -0.380858
v -0.254989 0.721918 -0.380717
v -0.267310 0.731666 -0.383776
v -0.273304 0.758206 -0.423350
v -0.276520 0.742532 -0.422958
v -0.262730 0.770161 -0.424559
v -0.247632 0.775192 -0.426263
v -0.232054 0.771953 -0.428003
v -0.220172 0.761310 -0.429315
v -0.215168 0.746116 -0.429847
v -0.218384 0.730441 -0.429455
v -0.228958 0.718487 -0.428246
v -0.244057 0.713455 -0.426542
v -0.259634 0.716695 -0.424801
v -0.271517 0.727337 -0.423489
v -0.277637 0.767703 -0.456995
v -0.281607 0.753274 -0.462672
v -0.266511 0.778746 -0.453762
v -0.251210 0.783444 -0.453840
v -0.235835 0.780538 -0.457207
v -0.224504 0.770807 -0.462961
v -0.220255 0.756858 -0.469561
v -0.224225 0.742429 -0.475237
v -0.235351 0.731386 -0.478470
v -0.250652 0.726688 -0.478393
v -0.266027 0.729594 -0.475026
v -0.277357 0.739325 -0.469272
v -0.286314 0.804507 -0.515126
v -0.290660 0.791515 -0.523403
v -0.274912 0.814498 -0.509990
v -0.259511 0.818811 -0.509370
v -0.244236 0.816290 -0.513434
v -0.233181 0.807611 -0.521092
v -0.229308 0.795099 -0.530291
v -0.233654 0.782107 -0.538568
v -0.245055 0.772116 -0.543704
v -0.260456 0.767803 -0.544323
v -0.275731 0.770324 -0.540260
v -0.286786 0.779004 -0.532602
v -0.293846 0.848374 -0.559391
v -0.298848 0.839202 -0.571517
v -0.281965 0.855569 -0.551437
v -0.266389 0.858858 -0.549786
v -0.251289 0.857361 -0.554881
v -0.240714 0.851478 -0.565356
v -0.237496 0.842786 -0.578406
v -0.242497 0.833614 -0.590532
v -0.254378 0.826419 -0.598486
v -0.269955 0.823130 -0.600136
v -0.285054 0.824627 -0.595041
v -0.295629 0.830510 -0.584566
vn 0.4882 0.2599 0.8331
vn 0.1696 0.2719 0.9473
vn 0.4641 0.2266 0.8563
vn -0.0718 0.1141 0.9909
vn 0.4501 0.4077 0.7945
vn 0.7091 0.4111 0.5729
vn 0.6877 0.4706 0.5529
vn 0.4174 0.4629 0.7820
vn 0.2223 -0.4895 -0.8432
vn 0.5641 -0.4865 -0.6671
vn -0.3169 -0.6541 -0.6868
vn -0.1339 -0.4110 -0.9018
vn 0.1843 -0.3293 -0.9261
vn -0.0854 -0.5207 -0.8495
vn -0.6782 -0.5010 -0.5376
vn -0.4359 -0.4887 -0.7557
vn -0.3571 -0.6289 -0.6906
vn -0.5442 -0.7587 -0.3580
vn 0.1399 0.3935 0.9086
vn -0.1686 0.2834 0.9441
vn 0.7772 0.0804 0.6242
vn 0.4665 -0.2170 -0.8575
vn -0.4445 0.1530 0.8826
vn -0.3382 -0.1715 0.9253
vn -0.0274 -0.7140 -0.6996
vn -0.2465 -0.8277 -0.5041
vn 0.1379 0.4076 0.9027
vn -0.1459 0.3262 0.9340
vn -0.6971 -0.4431 -0.5637
vn -0.4243 -0.4428 -0.7899
vn -0.1412 -0.3981 -0.9064
vn 0.1406 -0.3108 -0.9400
vn -0.4557 0.1977 0.8679
vn 0.4484 -0.1763 -0.8763
vn 0.3414 -0.5703 0.7472
vn 0.4560 -0.6383 0.6202
vn 0.4559 -0.6383 0.6203
vn 0.5636 -0.6789 -0.4706
vn 0.2837 -0.7035 -0.6516
vn 0.5410 -0.0297 0.8405
vn 0.7536 -0.1811 0.6319
vn 0.5409 -0.0297 0.8405
vn 0.0107 -0.1539 0.9880
vn 0.2596 0.0376 0.9650
vn -0.3823 -0.9005 -0.2075
vn -0.1922 -0.4026 0.8950
vn -0.4498 -0.4558 -0.7680
vn -0.7166 -0.4539 -0.5296
vn 0.1205 -0.9124 0.3912
vn 0.2194 -0.6937 0.6860
vn 0.2194 -0.6937 0.6861
vn 0.1881 -0.9718 -0.1420
vn 0.1046 -0.9943 0.0204
vn 0.4773 -0.8288 0.2920
vn 0.3412 -0.9389 -0.0454
vn -0.1472 0.9818 -0.1198
vn -0.1808 0.9077 -0.3787
vn -0.1472 0.9818 -0.1197
vn 0.1559 -0.3140 -0.9365
vn -0.1552 -0.4066 -0.9003
vn 0.1559 -0.3139 -0.9366
vn 0.1552 0.4066 0.9003
vn 0.4498 0.4558 0.7681
vn 0.4498 0.4558 0.7680
vn -0.4768 0.1743 0.8615
vn -0.1559 0.3140 0.9365
vn -0.1560 0.3140 0.9365
vn 0.4768 -0.1743 -0.8615
vn 0.7166 0.4539 0.5296
vn -0.7151 0.5942 0.3682
vn -0.4624 0.6877 0.5597
vn -0.4703 0.6932 0.5461
vn -0.3522 0.9338 -0.0627
vn -0.1975 0.9741 0.1101
vn -0.4356 0.7155 -0.5462
vn -0.4230 0.8510 -0.3114
vn -0.4356 0.7154 -0.5463
vn -0.2306 0.7635 -0.6033
vn -0.3417 0.5963 -0.7264
vn 0.1709 0.3599 0.9172
vn 0.6544 0.4100 0.6353
vn 0.6554 0.4099 0.6344
vn -0.2821 0.0678 -0.9570
vn -0.6833 0.1090 -0.7219
vn -0.6878 0.1236 -0.7153
vn 0.3397 0.4991 -0.7972
vn 0.1239 0.2981 -0.9465
vn 0.1245 0.3138 -0.9413
vn 0.3448 0.8768 0.3351
vn 0.4832 0.8748 0.0349
vn 0.3420 0.8835 0.3201
vn -0.0096 0.7816 0.6236
vn -0.8586 0.2184 -0.4638
vn -0.0976 -0.4133 0.9054
vn 0.3045 -0.1922 0.9329
vn 0.2778 -0.0463 0.9595
vn -0.1750 -0.2799 0.9439
vn -0.6879 -0.0148 0.7257
vn -0.3590 0.1726 0.9172
vn -0.3601 0.1721 0.9169
vn -0.1403 -0.4491 -0.8824
vn -0.6217 -0.5080 -0.5961
vn -0.6225 -0.5080 -0.5953
vn 0.7222 -0.0826 -0.6867
vn 0.3937 -0.2702 -0.8786
vn 0.3947 -0.2698 -0.8783
vn 0.8899 0.3548 0.2868
vn -0.8568 -0.4524 -0.2475
vn 0.7697 -0.5271 -0.3602
vn 0.5048 -0.6668 -0.5483
vn 0.1760 0.2254 -0.9582
vn 0.4928 0.3511 -0.7961
vn -0.2798 -0.9391 -0.1997
vn -0.4212 -0.9037 0.0766
vn -0.5488 -0.8359 0.0065
vn -0.3804 -0.8741 -0.3020
vn 0.5048 -0.7553 -0.4180
vn 0.0679 -0.8700 -0.4883
vn 0.0173 -0.7947 -0.6068
vn 0.6906 -0.2287 0.6861
vn 0.7138 -0.0718 0.6967
vn -0.3106 -0.5835 0.7503
vn -0.4228 -0.4699 0.7749
vn 0.7344 -0.6331 -0.2448
vn 0.8482 -0.3121 0.4280
vn 0.8992 -0.1603 0.4071
vn -0.0250 0.8072 0.5897
vn 0.3920 0.8503 0.3513
vn 0.3076 0.9116 0.2729
vn -0.0682 0.8704 0.4877
vn 0.6362 0.7677 0.0768
vn -0.4796 0.6461 0.5937
vn -0.9142 0.0216 -0.4048
vn -0.6990 0.0204 -0.7148
vn -0.2822 0.0685 -0.9569
vn -0.7675 0.4390 0.4672
vn -0.3072 0.8792 -0.3643
vn -0.3072 0.8791 -0.3643
vn -0.4788 0.7274 0.4916
vn -0.7502 0.5365 0.3864
vn -0.6817 0.1508 -0.7160
vn -0.3047 0.1930 -0.9327
vn 0.1082 0.3358 -0.9357
vn 0.4079 0.4475 -0.7958
vn 0.5429 0.8394 0.0267
vn -0.8888 0.1438 -0.4351
vn 0.0803 0.3894 0.9176
vn -0.5275 0.7977 -0.2924
vn -0.7284 0.6513 -0.2127
vn 0.7284 -0.6513 0.2127
vn 0.8797 -0.4605 0.1185
vn -0.2906 0.8897 -0.3521
vn 0.5275 -0.7977 0.2924
vn -0.0339 0.9211 -0.3879
vn 0.2906 -0.8897 0.3521
vn 0.2251 0.8897 -0.3973
vn 0.0339 -0.9211 0.3879
vn 0.4687 0.7977 -0.3795
vn -0.2251 -0.8897 0.3973
vn 0.6804 0.6513 -0.3359
vn -0.4687 -0.7977 0.3795
vn 0.8458 0.4605 -0.2694
vn -0.8797 0.4605 -0.1185
vn 0.0485 -0.8310 0.5541
vn 0.3005 -0.8002 0.5189
vn 0.2988 -0.6646 0.6849
vn 0.0628 -0.6935 0.7178
vn -0.6804 -0.6513 0.3359
vn 0.0323 0.3769 0.9257
vn 0.0302 0.3889 0.9208
vn 0.9710 -0.2384 0.0162
vn 0.9962 -0.0000 -0.0872
vn -0.9710 0.2384 -0.0162
vn -0.9962 -0.0000 0.0872
vn -0.9535 -0.2384 0.1846
vn -0.8458 -0.4605 0.2694
vn 0.9535 0.2384 -0.1846
vn -0.0803 -0.3894 -0.9176
vn 0.1843 0.3319 0.9251
vn 0.1951 0.3583 0.9130
vn -0.0012 0.3092 0.9510
vn 0.0240 0.2918 0.9562
vn 0.0757 0.4961 0.8650
vn 0.0452 0.4924 0.8692
vn 0.1981 0.3866 0.9007
vn 0.0530 0.2809 0.9583
vn 0.0170 0.4814 0.8763
vn 0.1930 0.4150 0.8891
vn 0.0837 0.2772 0.9572
vn -0.0069 0.4640 0.8858
vn 0.1802 0.4414 0.8790
vn 0.1142 0.2809 0.9529
vn -0.0248 0.4414 0.8970
vn 0.1606 0.4640 0.8711
vn 0.1424 0.2918 0.9458
vn -0.0357 0.4150 0.9091
vn -0.0387 0.3866 0.9214
vn -0.0336 0.3583 0.9330
vn 0.1354 0.4814 0.8660
vn 0.1663 0.3092 0.9363
vn -0.0208 0.3319 0.9431
vn 0.1065 0.4924 0.8638
vn 0.9243 -0.0659 0.3761
vn 0.9474 0.1533 0.2810
vn 0.7070 0.2964 0.6420
vn 0.6907 0.1419 0.7091
vn 0.9515 0.3076 -0.0081
vn 0.8457 0.5257 -0.0915
vn 0.8091 0.5766 0.1135
vn 0.9081 0.3724 0.1915
vn -0.5029 0.8568 -0.1140
vn -0.7002 0.7131 -0.0357
vn -0.6380 0.7520 0.1656
vn -0.4533 0.8865 0.0924
vn -0.2059 -0.8002 0.5633
vn -0.1753 -0.6646 0.7263
vn 0.9934 0.0735 0.0875
vn -0.2702 0.9472 -0.1727
vn -0.2356 0.9711 0.0374
vn -0.4451 -0.7099 0.5458
vn -0.3993 -0.5800 0.7100
vn 0.9687 -0.1606 0.1891
vn -0.0182 0.9780 -0.2078
vn 0.0004 1.0000 0.0045
vn -0.6530 -0.5661 0.5030
vn -0.5939 -0.4455 0.6700
vn 0.8790 -0.3788 0.2895
vn 0.8403 -0.2701 0.4701
vn 0.2362 0.9472 -0.2170
vn 0.2385 0.9711 -0.0040
vn -0.8154 -0.3788 0.4377
vn -0.7459 -0.2701 0.6088
vn 0.7305 -0.5661 0.3820
vn 0.7012 -0.4455 0.5567
vn 0.4754 0.8568 -0.1996
vn 0.4625 0.8865 0.0123
vn -0.9212 -0.1606 0.3544
vn -0.8449 -0.0659 0.5308
vn -0.9384 0.3076 0.1572
vn -0.9632 0.0735 0.2587
vn -0.8842 0.1533 0.4413
vn -0.8611 0.3724 0.3462
vn 0.5332 -0.7099 0.4603
vn 0.5165 -0.5800 0.6299
vn 0.6833 0.7131 -0.1568
vn 0.6571 0.7520 0.0523
vn -0.8487 0.5257 0.0568
vn -0.7771 0.5766 0.2522
vn -0.5685 0.4510 0.6880
vn -0.5848 0.2964 0.7551
vn -0.2881 0.3626 0.8863
vn -0.2789 0.4495 0.8486
vn -0.1273 0.8733 0.4702
vn 0.0391 0.8937 0.4470
vn -0.2428 -0.2208 0.9446
vn -0.3801 -0.1259 0.9164
vn 0.6315 -0.0022 0.7754
vn 0.2070 0.8733 0.4410
vn -0.4873 -0.0022 0.8732
vn 0.5334 -0.1259 0.8364
vn 0.3650 0.8137 0.4525
vn -0.5571 0.1419 0.8182
vn 0.4031 -0.2208 0.8881
vn 0.5023 0.7187 0.4807
vn -0.5093 0.5951 0.6217
vn 0.2496 -0.2804 0.9269
vn 0.6095 0.5951 0.5238
vn -0.4112 0.7187 0.5606
vn 0.0831 -0.3008 0.9501
vn 0.6793 0.4510 0.5789
vn -0.2809 0.8137 0.5090
vn -0.0848 -0.2804 0.9561
vn -0.2725 0.2758 0.9218
vn 0.3401 0.1254 0.9320
vn 0.2669 0.0721 0.9610
vn 0.2455 0.6532 0.7163
vn 0.3226 0.5999 0.7322
vn -0.2456 0.5304 0.8114
vn 0.1806 0.0386 0.9828
vn 0.3828 0.5304 0.7564
vn -0.1905 0.5999 0.7771
vn 0.0871 0.0272 0.9958
vn 0.4220 0.4495 0.7873
vn -0.1174 0.6532 0.7481
vn -0.0072 0.0386 0.9992
vn 0.4376 0.3626 0.8228
vn -0.0311 0.6867 0.7263
vn -0.0959 0.0721 0.9928
vn 0.4284 0.2758 0.8604
vn 0.0624 0.6981 0.7133
vn -0.1731 0.1254 0.9769
vn 0.3952 0.1949 0.8977
vn 0.1567 0.6867 0.7099
vn -0.2333 0.1949 0.9527
vn 0.1167 0.3562 0.9271
vn 0.1066 0.3489 0.9311
vn 0.0360 0.4120 0.9105
vn 0.0436 0.4216 0.9057
vn 0.1143 0.4216 0.8996
vn 0.1226 0.4120 0.9029
vn 0.0315 0.4009 0.9156
vn 0.0948 0.3443 0.9341
vn 0.1037 0.4289 0.8974
vn 0.0378 0.3658 0.9299
vn 0.0915 0.4335 0.8965
vn 0.1289 0.3769 0.9172
vn 0.1243 0.3658 0.9224
vn 0.0567 0.3489 0.9354
vn 0.0460 0.3562 0.9333
vn 0.0656 0.4335 0.8987
vn 0.0785 0.4351 0.8970
vn 0.1301 0.3889 0.9120
vn 0.0689 0.3443 0.9363
vn 0.0537 0.4289 0.9017
vn 0.1280 0.4009 0.9072
vn 0.0819 0.3427 0.9359
vn -0.9934 0.1072 0.0414
vn -0.9014 -0.3645 0.2336
vn -0.5679 -0.7386 0.3631
vn -0.0823 -0.9148 0.3954
vn 0.4254 -0.8459 0.3217
vn 0.8191 -0.5503 0.1619
vn 0.9934 -0.1072 -0.0414
vn 0.9014 0.3645 -0.2336
vn 0.5679 0.7386 -0.3631
vn 0.0823 0.9148 -0.3954
vn -0.4254 0.8459 -0.3217
vn -0.8191 0.5503 -0.1619
vn 0.8394 -0.4957 0.2227
vn 0.9946 -0.0868 -0.0574
vn 0.0705 0.8527 -0.5176
vn 0.5478 0.6897 -0.4736
vn 0.5150 0.5093 -0.6895
vn 0.0377 0.6440 -0.7641
vn -0.5665 -0.6572 0.4971
vn -0.0659 -0.8261 0.5597
vn -0.4253 0.7947 -0.4330
vn 0.8856 0.3469 -0.3089
vn 0.4524 -0.7672 0.4547
vn -0.8137 0.5304 -0.2381
vn -0.9915 0.1276 0.0254
vn -0.9046 -0.3074 0.2954
vn -0.5309 -0.4620 0.7104
vn -0.8863 -0.2019 0.4168
vn -0.8678 -0.0725 0.4916
vn -0.5013 -0.2378 0.8320
vn 0.8541 -0.3898 0.3443
vn 0.9939 -0.0895 -0.0644
vn -0.0305 -0.5932 0.8045
vn -0.4496 0.6134 -0.6493
vn 0.8653 0.2418 -0.4392
vn 0.4769 -0.5708 0.6684
vn -0.8270 0.4245 -0.3686
vn -0.9920 0.1249 0.0184
vn -0.9931 0.1161 0.0187
vn -0.8488 0.2747 -0.4517
vn -0.8667 0.1433 -0.4779
vn -0.9937 0.1097 0.0241
vn 0.4835 0.2561 -0.8371
vn -0.0008 0.3535 -0.9354
vn 0.8698 -0.2601 0.4192
vn 0.9931 -0.0983 -0.0641
vn 0.0029 -0.3370 0.9415
vn -0.4850 0.3606 -0.7967
vn 0.8478 0.0915 -0.5224
vn 0.5058 -0.3465 0.7900
vn 0.8803 -0.1457 0.4515
vn 0.5257 -0.1499 0.8374
vn 0.5650 0.1063 0.8182
vn 0.9044 -0.0019 0.4267
vn -0.8509 0.0412 0.5236
vn -0.4748 -0.0419 0.8791
vn 0.4591 0.0313 -0.8878
vn -0.0312 0.0950 -0.9950
vn 0.9928 -0.1048 -0.0587
vn 0.0292 -0.1127 0.9932
vn -0.5133 0.1363 -0.8473
vn 0.8350 -0.0404 -0.5488
vn -0.8797 -0.0151 -0.4753
vn -0.9948 0.1018 0.0090
vn -0.8458 0.1870 0.4997
vn -0.4602 0.2169 0.8609
vn 0.4292 -0.2344 -0.8723
vn -0.0633 -0.2101 -0.9756
vn 0.9909 -0.1126 -0.0737
vn 0.0610 0.1862 0.9806
vn -0.5395 -0.1299 -0.8319
vn 0.8141 -0.1980 -0.5459
vn 0.9904 -0.1328 -0.0375
vn 0.9172 0.3687 -0.1510
vn -0.0925 -0.9596 0.2658
vn -0.1095 -0.9924 -0.0567
vn 0.3865 -0.9195 -0.0719
vn 0.4058 -0.8897 0.2091
vn 0.0958 0.9714 -0.2172
vn -0.4276 0.8877 -0.1707
vn -0.5674 -0.7847 0.2497
vn 0.8013 -0.5905 0.0963
vn 0.5914 0.7777 -0.2131
vn -0.8980 -0.4071 0.1672
vn -0.8268 0.5570 -0.0783
vn -0.9956 0.0816 0.0452
vn -0.4079 0.9052 0.1194
vn -0.4061 0.8360 0.3690
vn -0.8141 0.5337 0.2291
vn -0.8168 0.5710 0.0827
vn 0.9897 -0.1359 -0.0443
vn 0.9236 0.3831 0.0102
vn 0.1116 0.9863 0.1218
vn -0.5781 -0.8154 -0.0317
vn 0.7886 -0.6109 -0.0706
vn 0.5998 0.7964 0.0774
vn -0.9037 -0.4282 -0.0001
vn -0.9962 0.0785 0.0384
vn -0.9959 0.0848 0.0324
vn -0.9952 0.0938 0.0295
vn -0.9082 -0.3109 -0.2803
vn -0.9087 -0.3832 -0.1654
vn -0.1149 -0.9158 -0.3848
vn 0.3852 -0.8512 -0.3564
vn 0.9903 -0.1296 -0.0503
vn 0.9251 0.3459 0.1566
vn 0.1148 0.9065 0.4063
vn -0.5857 -0.7464 -0.3159
vn 0.7894 -0.5666 -0.2362
vn 0.6039 0.7270 0.3269
vn 0.9206 0.2883 0.2633
vn 0.9198 0.1707 0.3532
vn 0.5937 0.4228 0.6847
vn 0.5974 0.6191 0.5098
vn -0.4077 0.7276 0.5517
vn -0.8132 0.4754 0.3356
vn -0.1101 -0.7843 -0.6105
vn 0.3916 -0.7356 -0.5528
vn 0.9913 -0.1207 -0.0533
vn 0.1099 0.7802 0.6158
vn -0.5834 -0.6303 -0.5122
vn 0.7949 -0.4947 -0.3513
vn -0.9959 0.0893 0.0145
vn -0.8966 -0.2022 -0.3939
vn -0.4316 0.5335 0.7274
vn -0.8301 0.3596 0.4262
vn -0.0951 -0.5638 -0.8204
vn 0.4014 -0.5442 -0.7367
vn 0.9898 -0.1250 -0.0683
vn 0.0946 0.5575 0.8248
vn -0.5673 -0.4396 -0.6964
vn 0.7975 -0.3851 -0.4645
vn -0.9921 -0.0580 0.1114
vn -0.8109 -0.5098 0.2873
vn -0.4124 -0.8251 0.3862
vn 0.0966 -0.9192 0.3817
vn 0.5797 -0.7671 0.2748
vn 0.9074 -0.4094 0.0944
vn 0.9921 0.0580 -0.1114
vn 0.8109 0.5098 -0.2873
vn 0.4124 0.8251 -0.3862
vn -0.0966 0.9192 -0.3817
vn -0.5797 0.7671 -0.2748
vn -0.9074 0.4094 -0.0944
vn 0.9228 -0.3528 0.1548
vn 0.9888 0.0785 -0.1270
vn -0.1067 0.8571 -0.5039
vn 0.3928 0.7744 -0.4960
vn 0.3747 0.5930 -0.7127
vn -0.1223 0.6480 -0.7517
vn 0.0965 -0.9192 0.3817
vn -0.4149 -0.7457 0.5214
vn 0.1098 -0.8304 0.5462
vn -0.5791 0.7176 -0.3869
vn 0.7928 0.4905 -0.3617
vn 0.6028 -0.6862 0.4072
vn -0.9042 0.3914 -0.1711
vn -0.9947 -0.0374 0.0957
vn -0.8189 -0.4546 0.3503
vn -0.3966 -0.5491 0.7356
vn -0.8096 -0.3485 0.4723
vn -0.8073 -0.2184 0.5483
vn -0.3955 -0.3241 0.8594
vn 0.9286 -0.2470 0.2771
vn 0.9881 0.0758 -0.1340
vn 0.1239 -0.5970 0.7926
vn -0.5886 0.5367 -0.6046
vn 0.7808 0.3845 -0.4924
vn 0.6098 -0.4903 0.6226
vn -0.9093 0.2858 -0.3026
vn -0.9953 -0.0401 0.0887
vn -0.9948 -0.0490 0.0889
vn -0.9121 0.1352 -0.3870
vn -0.9100 0.0029 -0.4145
vn -0.9940 -0.0555 0.0942
vn 0.3746 0.3393 -0.8629
vn -0.1248 0.3566 -0.9259
vn 0.9281 -0.1170 0.3534
vn 0.9887 0.0669 -0.1338
vn 0.1245 -0.3400 0.9321
vn -0.5925 0.2828 -0.7543
vn 0.7823 0.2342 -0.5772
vn 0.6102 -0.2654 0.7465
vn 0.9220 -0.0028 0.3872
vn 0.6010 -0.0686 0.7963
vn 0.5965 0.1907 0.7796
vn 0.9204 0.1432 0.3638
vn -0.8070 -0.1038 0.5813
vn -0.3982 -0.1270 0.9085
vn 0.3838 0.1141 -0.9163
vn -0.1167 0.0971 -0.9884
vn 0.9899 0.0604 -0.1286
vn 0.1175 -0.1149 0.9864
vn -0.5874 0.0573 -0.8073
vn 0.7894 0.1022 -0.6053
vn -0.8968 -0.1555 -0.4142
vn -0.9949 -0.0633 0.0791
vn -0.8275 0.0411 0.5600
vn -0.4273 0.1309 0.8946
vn 0.3989 -0.1531 -0.9041
vn -0.0970 -0.2092 -0.9730
vn 0.9882 0.0526 -0.1436
vn 0.0990 0.1852 0.9777
vn -0.5685 -0.2097 -0.7955
vn 0.7949 -0.0567 -0.6041
vn 0.9936 0.0323 -0.1078
vn 0.8316 0.5158 -0.2059
vn 0.0846 -0.9640 0.2522
vn 0.0505 -0.9963 -0.0690
vn 0.5255 -0.8428 -0.1166
vn 0.5595 -0.8127 0.1629
vn -0.0799 0.9758 -0.2037
vn -0.5779 0.8068 -0.1231
vn -0.4124 -0.8694 0.2721
vn 0.8918 -0.4515 0.0294
vn 0.4397 0.8662 -0.2374
vn -0.8052 -0.5506 0.2200
vn -0.9102 0.4141 -0.0103
vn -0.9899 -0.0836 0.1149
vn -0.5409 0.8247 0.1652
vn -0.5102 0.7546 0.4126
vn -0.8721 0.3905 0.2949
vn -0.8912 0.4282 0.1498
vn 0.9930 0.0291 -0.1146
vn 0.8470 0.5297 -0.0453
vn -0.0428 0.9901 0.1337
vn -0.4378 -0.8990 -0.0085
vn 0.8708 -0.4722 -0.1366
vn 0.4655 0.8835 0.0522
vn -0.8193 -0.5709 0.0531
vn -0.9904 -0.0868 0.1080
vn -0.9915 -0.0804 0.1022
vn -0.9925 -0.0714 0.0994
vn -0.8627 -0.4536 -0.2237
vn -0.8433 -0.5260 -0.1106
vn 0.0094 -0.9189 -0.3944
vn 0.4930 -0.7732 -0.3990
vn 0.9921 0.0354 -0.1205
vn 0.8649 0.4920 0.0999
vn -0.0065 0.9095 0.4157
vn -0.4767 -0.8298 -0.2901
vn 0.8527 -0.4270 -0.3010
vn 0.4985 0.8136 0.2993
vn 0.8774 0.4335 0.2055
vn 0.9022 0.3166 0.2928
vn 0.5635 0.5088 0.6509
vn 0.5227 0.7045 0.4801
vn -0.4811 0.6459 0.5928
vn -0.8542 0.3323 0.3999
vn -0.0234 -0.7865 -0.6172
vn 0.4664 -0.6564 -0.5930
vn 0.9914 0.0445 -0.1234
vn 0.0242 0.7823 0.6224
vn -0.5073 -0.7133 -0.4836
vn 0.8382 -0.3542 -0.4147
vn -0.9935 -0.0758 0.0844
vn -0.8771 -0.3435 -0.3356
vn -0.4604 0.4489 0.7658
vn -0.8454 0.2145 0.4891
vn -0.0594 -0.5647 -0.8232
vn 0.4318 -0.4644 -0.7732
vn 0.9896 0.0400 -0.1383
vn 0.0603 0.5584 0.8274
vn -0.5357 -0.5209 -0.6646
vn 0.8148 -0.2447 -0.5256
vt 0.847355 0.787458
vt 0.846779 0.768028
vt 0.873337 0.767747
vt 0.847378 0.748488
vt 0.817591 0.802122
vt 0.819053 0.819238
vt 0.222631 0.805921
vt 0.222707 0.792655
vt 0.028268 0.697991
vt 0.025300 0.709126
vt 0.002309 0.678731
vt 0.058544 0.678091
vt 0.057842 0.712417
vt 0.028868 0.678450
vt 0.056593 0.627241
vt 0.058055 0.644356
vt 0.028292 0.659021
vt 0.025198 0.648210
vt 0.817102 0.768388
vt 0.817804 0.734062
vt 0.850448 0.798269
vt 0.056404 0.730604
vt 0.819242 0.715874
vt 0.850346 0.737352
vt 0.854596 0.684866
vt 0.854596 0.712868
vt 0.843079 0.712868
vt 0.843079 0.684866
vt 0.222711 0.768075
vt 0.222690 0.743496
vt 0.653015 0.640558
vt 0.652940 0.653823
vt 0.652935 0.678403
vt 0.652956 0.702983
vt 0.222632 0.730283
vt 0.653015 0.716195
vt 0.447746 0.893142
vt 0.504953 0.893142
vt 0.504953 0.950108
vt 0.447746 0.950108
vt 0.854596 0.641997
vt 0.854596 0.656864
vt 0.843079 0.656864
vt 0.843079 0.641997
vt 0.215549 0.597678
vt 0.230416 0.597678
vt 0.230416 0.609194
vt 0.215549 0.609194
vt 0.159545 0.597678
vt 0.187547 0.597678
vt 0.187547 0.609194
vt 0.159545 0.609194
vt 0.854596 0.727734
vt 0.843079 0.727734
vt 0.144679 0.597678
vt 0.144679 0.609194
vt 0.548368 0.954688
vt 0.592335 0.954688
vt 0.592335 0.975947
vt 0.548368 0.975947
vt 0.360166 0.893142
vt 0.390538 0.893142
vt 0.390538 0.950108
vt 0.360166 0.950108
vt 0.626607 0.893135
vt 0.683815 0.893135
vt 0.683815 0.950101
vt 0.626607 0.950101
vt 0.539028 0.893135
vt 0.569400 0.893135
vt 0.569400 0.950101
vt 0.539028 0.950101
vt 0.535326 0.893142
vt 0.535326 0.950108
vt 0.714187 0.893135
vt 0.714187 0.950101
vt 0.942854 0.034659
vt 0.942854 0.001847
vt 0.998153 0.001847
vt 0.998153 0.034659
vt 0.382741 0.954688
vt 0.465555 0.954688
vt 0.465555 0.975947
vt 0.382741 0.975947
vt 0.990764 0.842638
vt 0.990764 0.925452
vt 0.969505 0.925452
vt 0.969505 0.842638
vt 0.990764 0.715858
vt 0.990764 0.759825
vt 0.969505 0.759825
vt 0.969505 0.715858
vt 0.338775 0.954688
vt 0.338775 0.975947
vt 0.990764 0.969418
vt 0.969505 0.969418
vt 0.873183 0.053740
vt 0.857374 0.053740
vt 0.857374 0.024006
vt 0.873183 0.024006
vt 0.942854 0.147281
vt 0.942854 0.090970
vt 0.998153 0.090970
vt 0.998153 0.147281
vt 0.750692 0.968133
vt 0.717880 0.968133
vt 0.717880 0.912834
vt 0.750692 0.912834
vt 0.863314 0.968133
vt 0.807003 0.968133
vt 0.807003 0.912834
vt 0.863314 0.912834
vt 0.942854 0.180093
vt 0.998153 0.180093
vt 0.896126 0.968133
vt 0.896126 0.912834
vt 0.829671 0.638022
vt 0.811432 0.638022
vt 0.811432 0.464721
vt 0.829671 0.464721
vt 0.728364 0.258096
vt 0.706373 0.258096
vt 0.706373 0.228361
vt 0.728364 0.228361
vt 0.766165 0.258096
vt 0.750355 0.258096
vt 0.750355 0.228361
vt 0.766165 0.228361
vt 0.813392 0.053740
vt 0.797582 0.053740
vt 0.797582 0.024006
vt 0.813392 0.024006
vt 0.835383 0.053740
vt 0.835383 0.024006
vt 0.690563 0.258096
vt 0.690563 0.228361
vt 0.315258 0.270221
vt 0.342328 0.270221
vt 0.342328 0.286460
vt 0.315258 0.286460
vt 0.861407 0.638022
vt 0.847909 0.638022
vt 0.847909 0.464721
vt 0.861407 0.464721
vt 0.829633 0.673737
vt 0.829633 0.691976
vt 0.656708 0.691976
vt 0.656708 0.673737
vt 0.829633 0.642001
vt 0.829633 0.655499
vt 0.656708 0.655499
vt 0.656708 0.642001
vt 0.797934 0.638022
vt 0.797934 0.464721
vt 0.829633 0.705474
vt 0.656708 0.705474
vt 0.869110 0.582913
vt 0.868997 0.607227
vt 0.865146 0.607227
vt 0.865259 0.582913
vt 0.712846 0.262832
vt 0.733521 0.262832
vt 0.733521 0.279107
vt 0.712846 0.279107
vt 0.658705 0.262832
vt 0.685776 0.262832
vt 0.685776 0.279107
vt 0.658705 0.279107
vt 0.369399 0.270221
vt 0.369399 0.286460
vt 0.294584 0.270221
vt 0.294584 0.286460
vt 0.638031 0.262832
vt 0.638031 0.279107
vt 0.390073 0.270221
vt 0.390073 0.286460
vt 0.752717 0.185443
vt 0.757560 0.152765
vt 0.772545 0.160841
vt 0.770610 0.183770
vt 0.857484 0.301923
vt 0.857596 0.277609
vt 0.861447 0.277609
vt 0.861334 0.301923
vt 0.857484 0.365598
vt 0.857437 0.333761
vt 0.861288 0.333761
vt 0.861334 0.365598
vt 0.868997 0.670902
vt 0.869110 0.695217
vt 0.865259 0.695217
vt 0.865146 0.670902
vt 0.868950 0.639065
vt 0.865100 0.639065
vt 0.857596 0.389913
vt 0.861447 0.389913
vt 0.158347 0.001841
vt 0.156584 0.020506
vt 0.134429 0.014348
vt 0.123871 0.001841
vt 0.782987 0.232478
vt 0.763533 0.216658
vt 0.776762 0.205944
vt 0.789275 0.216495
vt 0.154904 0.038308
vt 0.123693 0.027475
vt 0.206808 0.017373
vt 0.187591 0.033507
vt 0.179501 0.018603
vt 0.192213 0.008293
vt 0.773743 0.133612
vt 0.782885 0.148153
vt 0.107835 0.008029
vt 0.789273 0.182025
vt 0.216881 0.858662
vt 0.288560 0.858662
vt 0.288560 0.888486
vt 0.216881 0.888486
vt 0.431917 0.854026
vt 0.360238 0.854026
vt 0.360238 0.824202
vt 0.431917 0.824202
vt 0.790313 0.858662
vt 0.861992 0.858662
vt 0.861992 0.888486
vt 0.790313 0.888486
vt 0.360239 0.858662
vt 0.360239 0.888486
vt 0.288559 0.854026
vt 0.288559 0.824202
vt 0.861991 0.854026
vt 0.790312 0.854026
vt 0.790312 0.824202
vt 0.861991 0.824202
vt 0.431918 0.858662
vt 0.431918 0.888486
vt 0.216879 0.854026
vt 0.216879 0.824202
vt 0.718633 0.854026
vt 0.718633 0.824202
vt 0.503597 0.858662
vt 0.503597 0.888486
vt 0.145200 0.854026
vt 0.145200 0.824202
vt 0.646954 0.854026
vt 0.646954 0.824202
vt 0.575276 0.858662
vt 0.575276 0.888486
vt 0.073521 0.854026
vt 0.073521 0.824202
vt 0.001844 0.858662
vt 0.073523 0.858662
vt 0.073523 0.888486
vt 0.001844 0.888486
vt 0.575275 0.854026
vt 0.575275 0.824202
vt 0.646955 0.858662
vt 0.646955 0.888486
vt 0.001842 0.854026
vt 0.001842 0.824201
vt 0.145202 0.858662
vt 0.145202 0.888486
vt 0.503596 0.854026
vt 0.503596 0.824202
vt 0.718634 0.858662
vt 0.718634 0.888486
vt 0.965819 0.726340
vt 0.965819 0.794126
vt 0.956186 0.794126
vt 0.956186 0.726340
vt 0.952489 0.794126
vt 0.952489 0.861912
vt 0.942856 0.861912
vt 0.942856 0.794126
vt 0.965819 0.658553
vt 0.956186 0.658553
vt 0.952489 0.726339
vt 0.942856 0.726339
vt 0.965819 0.590767
vt 0.956186 0.590767
vt 0.952489 0.658553
vt 0.942856 0.658553
vt 0.965819 0.522981
vt 0.956186 0.522981
vt 0.952489 0.590767
vt 0.942856 0.590767
vt 0.965819 0.455195
vt 0.956186 0.455195
vt 0.952489 0.522981
vt 0.942856 0.522981
vt 0.965819 0.387408
vt 0.956186 0.387408
vt 0.952489 0.455194
vt 0.942856 0.455194
vt 0.965819 0.319622
vt 0.956186 0.319622
vt 0.865880 0.501947
vt 0.865880 0.476747
vt 0.870941 0.476747
vt 0.870941 0.501947
vt 0.052251 0.811883
vt 0.077451 0.811883
vt 0.077451 0.816944
vt 0.052251 0.816944
vt 0.865880 0.451547
vt 0.870941 0.451547
vt 0.102651 0.811883
vt 0.102651 0.816944
vt 0.865880 0.426347
vt 0.870941 0.426347
vt 0.127851 0.811884
vt 0.127851 0.816944
vt 0.087302 0.893136
vt 0.108225 0.893165
vt 0.106698 0.906679
vt 0.089055 0.907002
vt 0.865880 0.401147
vt 0.870941 0.401147
vt 0.153051 0.811884
vt 0.153051 0.816944
vt 0.865880 0.375947
vt 0.870941 0.375947
vt 0.178251 0.811884
vt 0.178251 0.816944
vt 0.865880 0.350747
vt 0.870941 0.350747
vt 0.203451 0.811884
vt 0.203450 0.816944
vt 0.747754 0.628069
vt 0.747754 0.464730
vt 0.794247 0.464730
vt 0.794247 0.628069
vt 0.952489 0.929698
vt 0.942856 0.929698
vt 0.965819 0.861912
vt 0.956186 0.861912
vt 0.952489 0.997484
vt 0.942856 0.997484
vt 0.965819 0.929698
vt 0.956186 0.929698
vt 0.965819 0.997484
vt 0.956186 0.997484
vt 0.952489 0.184050
vt 0.952489 0.251836
vt 0.942856 0.251836
vt 0.942856 0.184050
vt 0.952489 0.319622
vt 0.942856 0.319622
vt 0.965819 0.184050
vt 0.965819 0.251836
vt 0.956186 0.251836
vt 0.956186 0.184050
vt 0.952489 0.387408
vt 0.942856 0.387408
vt 0.877144 0.152994
vt 0.877144 0.077422
vt 0.906308 0.077422
vt 0.906308 0.152994
vt 0.939162 0.530853
vt 0.939162 0.606425
vt 0.909998 0.606425
vt 0.909998 0.530853
vt 0.877144 0.757568
vt 0.877144 0.681997
vt 0.906308 0.681997
vt 0.906308 0.757568
vt 0.877144 0.228566
vt 0.906308 0.228566
vt 0.939162 0.455281
vt 0.909998 0.455281
vt 0.877144 0.833140
vt 0.906308 0.833140
vt 0.877144 0.304137
vt 0.906308 0.304137
vt 0.939163 0.379709
vt 0.909998 0.379709
vt 0.877144 0.908712
vt 0.906308 0.908712
vt 0.877144 0.379709
vt 0.906308 0.379709
vt 0.939163 0.304137
vt 0.909998 0.304137
vt 0.939162 0.833140
vt 0.939162 0.908712
vt 0.909997 0.908712
vt 0.909997 0.833140
vt 0.877144 0.455281
vt 0.906308 0.455281
vt 0.939163 0.228566
vt 0.909998 0.228566
vt 0.939162 0.757568
vt 0.909998 0.757568
vt 0.877144 0.530853
vt 0.906308 0.530853
vt 0.939163 0.152994
vt 0.909998 0.152994
vt 0.939162 0.681997
vt 0.909998 0.681996
vt 0.877144 0.606425
vt 0.906308 0.606425
vt 0.939163 0.077422
vt 0.909998 0.077422
vt 0.877144 0.001850
vt 0.906308 0.001850
vt 0.939163 0.001850
vt 0.909998 0.001850
vt 0.146586 0.040888
vt 0.206542 0.086893
vt 0.001842 0.291593
vt 0.206542 0.496292
vt 0.146586 0.542298
vt 0.507053 0.291331
vt 0.432128 0.281467
vt 0.507053 0.001841
vt 0.076767 0.011968
vt 0.252547 0.436337
vt 0.581978 0.281467
vt 0.001842 0.002103
vt 0.281467 0.366518
vt 0.651797 0.252546
vt 0.227428 0.076767
vt 0.217564 0.001841
vt 0.291331 0.291593
vt 0.711753 0.206541
vt 0.256348 0.146586
vt 0.281467 0.216667
vt 0.757758 0.146586
vt 0.302353 0.206541
vt 0.252547 0.146848
vt 0.786678 0.076767
vt 0.076767 0.571218
vt 0.001842 0.581082
vt 0.362308 0.252546
vt 0.796542 0.001842
vt 0.865880 0.325548
vt 0.870941 0.325548
vt 0.969513 0.227519
vt 0.969513 0.205779
vt 0.996214 0.205779
vt 0.996214 0.227519
vt 0.969513 0.379694
vt 0.969513 0.357955
vt 0.996214 0.357955
vt 0.996214 0.379694
vt 0.969501 0.580391
vt 0.969501 0.558651
vt 0.996202 0.558651
vt 0.996202 0.580391
vt 0.969513 0.184040
vt 0.996214 0.184040
vt 0.969513 0.336215
vt 0.996214 0.336215
vt 0.969501 0.536912
vt 0.996202 0.536912
vt 0.969501 0.710827
vt 0.969501 0.689087
vt 0.996202 0.689087
vt 0.996202 0.710827
vt 0.969513 0.314476
vt 0.996214 0.314476
vt 0.969501 0.515172
vt 0.996202 0.515172
vt 0.969501 0.667348
vt 0.996202 0.667348
vt 0.969513 0.292737
vt 0.996214 0.292737
vt 0.969501 0.493433
vt 0.996202 0.493433
vt 0.969501 0.645609
vt 0.996202 0.645609
vt 0.969513 0.270997
vt 0.996214 0.270997
vt 0.969501 0.471694
vt 0.996202 0.471694
vt 0.969513 0.444912
vt 0.969513 0.423173
vt 0.996214 0.423173
vt 0.996214 0.444912
vt 0.969501 0.623869
vt 0.996202 0.623869
vt 0.969513 0.249258
vt 0.996214 0.249258
vt 0.969501 0.449954
vt 0.996202 0.449954
vt 0.969513 0.401434
vt 0.996214 0.401434
vt 0.969501 0.602130
vt 0.996202 0.602130
vt 0.166598 0.940886
vt 0.177302 0.956215
vt 0.159214 0.965920
vt 0.151505 0.952513
vt 0.344527 0.941988
vt 0.331113 0.956409
vt 0.322254 0.946623
vt 0.334226 0.933752
vt 0.217931 0.969059
vt 0.201313 0.956621
vt 0.210791 0.946482
vt 0.224839 0.957336
vt 0.067123 0.898411
vt 0.071931 0.911068
vt 0.355906 0.925978
vt 0.344618 0.918367
vt 0.236608 0.977566
vt 0.240776 0.964728
vt 0.049057 0.907707
vt 0.056296 0.918807
vt 0.176951 0.932015
vt 0.188956 0.948278
vt 0.256611 0.981848
vt 0.257896 0.968461
vt 0.033601 0.920243
vt 0.042617 0.929593
vt 0.162782 0.917627
vt 0.154173 0.927825
vt 0.277024 0.981679
vt 0.275370 0.968377
vt 0.020583 0.935200
vt 0.031330 0.943015
vt 0.146428 0.906183
vt 0.139921 0.917525
vt 0.296847 0.977078
vt 0.292391 0.964489
vt 0.010257 0.952401
vt 0.022467 0.958493
vt 0.177556 0.923436
vt 0.169604 0.904145
vt 0.183233 0.899134
vt 0.190002 0.917258
vt 0.128202 0.897728
vt 0.123884 0.910367
vt 0.315123 0.968409
vt 0.308218 0.957057
vt 0.002443 0.971312
vt 0.015810 0.976238
vt 0.188048 0.940964
vt 0.198973 0.933127
vt 0.207654 0.909435
vt 0.203660 0.894367
vt 0.215721 0.893133
vt 0.218254 0.905568
vt 0.246659 0.947832
vt 0.259968 0.950736
vt 0.065890 0.933825
vt 0.055266 0.942488
vt 0.142059 0.941534
vt 0.273533 0.950697
vt 0.046449 0.953218
vt 0.130809 0.933270
vt 0.286732 0.947592
vt 0.039821 0.966177
vt 0.118405 0.927455
vt 0.298965 0.941677
vt 0.035814 0.980933
vt 0.214285 0.922456
vt 0.105084 0.924499
vt 0.309947 0.933317
vt 0.223364 0.933325
vt 0.091453 0.924636
vt 0.319284 0.922444
vt 0.234197 0.941988
vt 0.078181 0.927781
vt 0.326553 0.909119
vt 0.050326 0.969934
vt 0.047748 0.982360
vt 0.125447 0.942119
vt 0.115107 0.937200
vt 0.283342 0.937940
vt 0.293572 0.932925
vt 0.223437 0.916626
vt 0.104002 0.934724
vt 0.302640 0.925696
vt 0.230763 0.925908
vt 0.092652 0.934798
vt 0.310113 0.916361
vt 0.239743 0.933184
vt 0.081628 0.937422
vt 0.315424 0.905106
vt 0.250020 0.938139
vt 0.071467 0.942475
vt 0.147842 0.970257
vt 0.142261 0.958727
vt 0.261051 0.940616
vt 0.062642 0.949768
vt 0.134674 0.949353
vt 0.272334 0.940544
vt 0.055451 0.959013
vt 0.266532 0.893133
vt 0.098448 0.982360
vt 0.375810 0.628068
vt 0.375810 0.464730
vt 0.422303 0.464730
vt 0.422303 0.628068
vt 0.387516 0.460645
vt 0.387516 0.297306
vt 0.434009 0.297306
vt 0.434009 0.460645
vt 0.712968 0.460645
vt 0.712968 0.297306
vt 0.759461 0.297306
vt 0.759461 0.460645
vt 0.341023 0.460645
vt 0.341023 0.297306
vt 0.468796 0.464730
vt 0.468796 0.628068
vt 0.666475 0.460645
vt 0.666475 0.297306
vt 0.294530 0.460645
vt 0.294530 0.297306
vt 0.701261 0.628069
vt 0.701261 0.464730
vt 0.619981 0.460645
vt 0.619981 0.297306
vt 0.282824 0.628068
vt 0.282824 0.464730
vt 0.329317 0.464730
vt 0.329317 0.628068
vt 0.608275 0.628068
vt 0.608275 0.464730
vt 0.654768 0.464730
vt 0.654768 0.628068
vt 0.526995 0.460645
vt 0.526995 0.297306
vt 0.573488 0.297306
vt 0.573488 0.460645
vt 0.236331 0.628068
vt 0.236331 0.464730
vt 0.561782 0.628068
vt 0.561782 0.464730
vt 0.480502 0.460645
vt 0.480502 0.297306
vt 0.805954 0.460645
vt 0.805954 0.297306
vt 0.852447 0.297306
vt 0.852447 0.460645
vt 0.515289 0.628068
vt 0.515289 0.464730
vt 0.027052 0.811883
vt 0.027052 0.816944
vt 0.865880 0.527146
vt 0.870941 0.527146
vt 0.001852 0.811883
vt 0.001852 0.816944
vt 0.865880 0.552346
vt 0.870941 0.552346
vt 0.865880 0.577546
vt 0.870941 0.577546
vt 0.279050 0.811884
vt 0.304250 0.811884
vt 0.304250 0.816945
vt 0.279050 0.816945
vt 0.253850 0.811884
vt 0.253850 0.816945
vt 0.865880 0.300348
vt 0.865880 0.275148
vt 0.870941 0.275148
vt 0.870941 0.300348
vt 0.228650 0.811884
vt 0.228650 0.816945
vt 0.041025 0.582908
vt 0.041025 0.592617
vt 0.029430 0.592617
vt 0.029430 0.582908
vt 0.017836 0.592617
vt 0.017836 0.582908
vt 0.156970 0.582908
vt 0.156970 0.592617
vt 0.145375 0.592617
vt 0.145375 0.582908
vt 0.133781 0.592617
vt 0.133781 0.582908
vt 0.122186 0.592617
vt 0.122186 0.582908
vt 0.110592 0.592617
vt 0.110592 0.582908
vt 0.098997 0.592617
vt 0.098997 0.582908
vt 0.087403 0.592617
vt 0.087403 0.582908
vt 0.075808 0.592617
vt 0.075808 0.582908
vt 0.064214 0.592617
vt 0.064214 0.582908
vt 0.215979 0.504118
vt 0.226021 0.509915
vt 0.218861 0.517075
vt 0.213359 0.513898
vt 0.052620 0.592617
vt 0.052620 0.582908
vt 0.845876 0.072588
vt 0.852696 0.075337
vt 0.850626 0.080625
vt 0.843932 0.077842
vt 0.231818 0.519956
vt 0.222037 0.522577
vt 0.231818 0.531550
vt 0.222037 0.528930
vt 0.204385 0.547389
vt 0.194344 0.541592
vt 0.201504 0.534432
vt 0.207006 0.537608
vt 0.215979 0.547389
vt 0.213359 0.537608
vt 0.226020 0.541592
vt 0.218861 0.534432
vt 0.188546 0.531550
vt 0.198327 0.528930
vt 0.218861 0.534432
vt 0.188546 0.519956
vt 0.198327 0.522577
vt 0.194344 0.509915
vt 0.201504 0.517075
vt 0.204385 0.504118
vt 0.207006 0.513898
vt 0.824343 0.073679
vt 0.830864 0.074068
vt 0.830293 0.090829
vt 0.824735 0.090669
vt 0.866170 0.079761
vt 0.872955 0.080954
vt 0.872132 0.086147
vt 0.864942 0.085171
vt 0.816855 0.069179
vt 0.824147 0.068324
vt 0.817889 0.074400
vt 0.838833 0.070208
vt 0.837393 0.075527
vt 0.859428 0.077884
vt 0.857658 0.083286
vt 0.809833 0.071101
vt 0.811538 0.076155
vt 0.796609 0.076773
vt 0.803129 0.073766
vt 0.805265 0.078723
vt 0.798924 0.081775
vt 0.831542 0.068687
vt 0.790108 0.079797
vt 0.792428 0.084786
vt 0.794516 0.095184
vt 0.801309 0.093830
vt 0.801935 0.108553
vt 0.795262 0.108653
vt 0.848698 0.093201
vt 0.842098 0.092117
vt 0.870384 0.096242
vt 0.863261 0.095429
vt 0.819206 0.090995
vt 0.836021 0.091311
vt 0.855849 0.094399
vt 0.813567 0.091640
vt 0.807650 0.092600
vt 0.808106 0.108555
vt 0.813891 0.108599
vt 0.813406 0.136465
vt 0.807450 0.136125
vt 0.830411 0.108588
vt 0.824919 0.108632
vt 0.848213 0.108400
vt 0.841888 0.108425
vt 0.868957 0.109181
vt 0.862127 0.108783
vt 0.819438 0.108635
vt 0.836007 0.108508
vt 0.855020 0.108506
vt 0.848473 0.136062
vt 0.855022 0.135877
vt 0.854142 0.161723
vt 0.847397 0.161836
vt 0.801212 0.135758
vt 0.794595 0.135445
vt 0.830468 0.136778
vt 0.824811 0.136827
vt 0.842213 0.136341
vt 0.868571 0.136124
vt 0.861768 0.135895
vt 0.819159 0.136710
vt 0.836236 0.136604
vt 0.813877 0.161942
vt 0.808147 0.161673
vt 0.801979 0.161380
vt 0.795264 0.161095
vt 0.829934 0.162260
vt 0.824621 0.162293
vt 0.841164 0.162005
vt 0.868269 0.161845
vt 0.861216 0.161745
vt 0.819315 0.162153
vt 0.835395 0.162159
vt 0.117797 0.597677
vt 0.129392 0.597677
vt 0.129392 0.607386
vt 0.117797 0.607386
vt 0.140986 0.597677
vt 0.140986 0.607386
vt 0.001852 0.597677
vt 0.013447 0.597677
vt 0.013447 0.607386
vt 0.001852 0.607386
vt 0.025041 0.597677
vt 0.025041 0.607386
vt 0.036636 0.597677
vt 0.036636 0.607386
vt 0.048230 0.597677
vt 0.048230 0.607386
vt 0.059825 0.597677
vt 0.059825 0.607386
vt 0.071419 0.597677
vt 0.071419 0.607386
vt 0.083014 0.597677
vt 0.083014 0.607386
vt 0.094608 0.597677
vt 0.094608 0.607386
vt 0.150049 0.561091
vt 0.159830 0.558472
vt 0.163006 0.563974
vt 0.155845 0.571133
vt 0.106203 0.597677
vt 0.106203 0.607386
vt 0.844382 0.278011
vt 0.842463 0.272513
vt 0.849524 0.269724
vt 0.851573 0.275301
vt 0.168507 0.567151
vt 0.165886 0.576931
vt 0.174860 0.567152
vt 0.177480 0.576933
vt 0.193321 0.549501
vt 0.183541 0.552121
vt 0.180365 0.546619
vt 0.187525 0.539460
vt 0.193320 0.561096
vt 0.183540 0.558474
vt 0.180363 0.563976
vt 0.187522 0.571136
vt 0.174863 0.543442
vt 0.177485 0.533661
vt 0.168510 0.543441
vt 0.165890 0.533660
vt 0.163008 0.546617
vt 0.155848 0.539456
vt 0.159830 0.552119
vt 0.150050 0.549497
vt 0.821738 0.276416
vt 0.822609 0.258586
vt 0.828432 0.258562
vt 0.828615 0.276174
vt 0.865822 0.270957
vt 0.864643 0.265247
vt 0.872222 0.264361
vt 0.872984 0.269839
vt 0.813728 0.280938
vt 0.814969 0.275475
vt 0.821380 0.282053
vt 0.836973 0.280456
vt 0.835527 0.274765
vt 0.858695 0.272785
vt 0.856955 0.267079
vt 0.806399 0.278704
vt 0.808345 0.273442
vt 0.792670 0.272339
vt 0.795253 0.267143
vt 0.801829 0.270551
vt 0.799432 0.275698
vt 0.829196 0.281882
vt 0.785920 0.268943
vt 0.788532 0.263749
vt 0.791083 0.252899
vt 0.792372 0.238810
vt 0.799290 0.239181
vt 0.798158 0.254557
vt 0.840834 0.257489
vt 0.847772 0.256499
vt 0.863070 0.254443
vt 0.870574 0.253703
vt 0.816829 0.258090
vt 0.834446 0.258193
vt 0.855286 0.255389
vt 0.810941 0.257246
vt 0.804768 0.256055
vt 0.805760 0.239379
vt 0.806291 0.211109
vt 0.812285 0.211738
vt 0.811829 0.239517
vt 0.823275 0.239858
vt 0.828955 0.240005
vt 0.840967 0.240429
vt 0.847600 0.240609
vt 0.862046 0.240456
vt 0.869244 0.240032
vt 0.817615 0.239666
vt 0.834796 0.240203
vt 0.854698 0.240639
vt 0.847954 0.211259
vt 0.847479 0.185119
vt 0.854302 0.184915
vt 0.854636 0.210831
vt 0.793297 0.209786
vt 0.800020 0.210405
vt 0.823899 0.212416
vt 0.829694 0.212410
vt 0.841607 0.211760
vt 0.861574 0.210617
vt 0.868494 0.210673
vt 0.818113 0.212187
vt 0.835556 0.212178
vt 0.807570 0.184856
vt 0.813440 0.185170
vt 0.794453 0.184080
vt 0.801245 0.184471
vt 0.824324 0.185506
vt 0.829674 0.185539
vt 0.841123 0.185328
vt 0.861380 0.184795
vt 0.868578 0.184795
vt 0.818979 0.185388
vt 0.835228 0.185478
vt 0.612095 0.284995
vt 0.612095 0.292684
vt 0.602913 0.292684
vt 0.602913 0.284995
vt 0.593732 0.292684
vt 0.593732 0.284995
vt 0.584550 0.292684
vt 0.584550 0.284995
vt 0.694731 0.284995
vt 0.694731 0.292684
vt 0.685549 0.292684
vt 0.685549 0.284995
vt 0.676368 0.292684
vt 0.676368 0.284995
vt 0.667186 0.292684
vt 0.667186 0.284995
vt 0.658004 0.292684
vt 0.658004 0.284995
vt 0.648822 0.292684
vt 0.648822 0.284995
vt 0.639641 0.292684
vt 0.639641 0.284995
vt 0.630459 0.292684
vt 0.630459 0.284995
vt 0.203273 0.068126
vt 0.194091 0.068126
vt 0.196167 0.060380
vt 0.201198 0.060381
vt 0.621277 0.292684
vt 0.621277 0.284995
vt 0.167566 0.781794
vt 0.165113 0.787237
vt 0.160939 0.785360
vt 0.163380 0.780073
vt 0.186140 0.063534
vt 0.191810 0.057865
vt 0.181550 0.055582
vt 0.189295 0.053507
vt 0.194093 0.033859
vt 0.203275 0.033859
vt 0.201199 0.041604
vt 0.196168 0.041604
vt 0.186141 0.038449
vt 0.191811 0.044119
vt 0.181549 0.055582
vt 0.181550 0.046401
vt 0.189295 0.048476
vt 0.211226 0.038450
vt 0.205556 0.044120
vt 0.215817 0.046402
vt 0.208071 0.048477
vt 0.215816 0.055584
vt 0.208071 0.053508
vt 0.211225 0.063535
vt 0.205555 0.057865
vt 0.167141 0.764385
vt 0.166710 0.769633
vt 0.153263 0.768850
vt 0.153478 0.764402
vt 0.161159 0.731274
vt 0.163049 0.736696
vt 0.158806 0.738251
vt 0.156987 0.732728
vt 0.170889 0.758428
vt 0.171460 0.764318
vt 0.166669 0.759174
vt 0.169665 0.776147
vt 0.165403 0.774865
vt 0.162722 0.792577
vt 0.160679 0.797879
vt 0.156597 0.796356
vt 0.158528 0.790840
vt 0.169456 0.752749
vt 0.165363 0.754028
vt 0.165192 0.742003
vt 0.167445 0.747321
vt 0.163412 0.748918
vt 0.161103 0.743709
vt 0.171040 0.770282
vt 0.150210 0.739923
vt 0.151233 0.745458
vt 0.139307 0.745907
vt 0.139236 0.740594
vt 0.151014 0.783428
vt 0.152018 0.778235
vt 0.149293 0.734245
vt 0.153295 0.759958
vt 0.152778 0.773417
vt 0.148869 0.794686
vt 0.149893 0.788989
vt 0.152853 0.755411
vt 0.152155 0.750620
vt 0.139283 0.750872
vt 0.139216 0.755515
vt 0.116961 0.755111
vt 0.117223 0.750383
vt 0.139090 0.768705
vt 0.139107 0.764329
vt 0.139038 0.782790
vt 0.139093 0.777807
vt 0.139055 0.735002
vt 0.139149 0.759954
vt 0.139095 0.773152
vt 0.138594 0.793730
vt 0.138877 0.788122
vt 0.117185 0.782909
vt 0.117292 0.788107
vt 0.096941 0.787168
vt 0.096876 0.781896
vt 0.117496 0.745430
vt 0.117693 0.740241
vt 0.116694 0.768642
vt 0.116668 0.764158
vt 0.116996 0.777948
vt 0.117744 0.734806
vt 0.116767 0.759676
vt 0.116813 0.773212
vt 0.117248 0.793549
vt 0.096787 0.755508
vt 0.096981 0.750978
vt 0.097186 0.746094
vt 0.097342 0.740826
vt 0.096561 0.768176
vt 0.096531 0.763988
vt 0.096756 0.777007
vt 0.097415 0.735260
vt 0.096633 0.759802
vt 0.096641 0.772473
vt 0.096917 0.792738
vt 0.781059 0.284997
vt 0.790241 0.284997
vt 0.790241 0.292686
vt 0.781059 0.292686
vt 0.799423 0.284997
vt 0.799423 0.292686
vt 0.808605 0.284997
vt 0.808605 0.292686
vt 0.698423 0.284997
vt 0.707605 0.284997
vt 0.707605 0.292686
vt 0.698423 0.292686
vt 0.716787 0.284997
vt 0.716787 0.292686
vt 0.725968 0.284997
vt 0.725968 0.292686
vt 0.735150 0.284997
vt 0.735150 0.292686
vt 0.744332 0.284997
vt 0.744332 0.292686
vt 0.753514 0.284997
vt 0.753514 0.292686
vt 0.762696 0.284997
vt 0.762696 0.292686
vt 0.292696 0.248192
vt 0.298366 0.242522
vt 0.302723 0.245038
vt 0.300648 0.252783
vt 0.771877 0.284997
vt 0.771877 0.292686
vt 0.005600 0.781055
vt 0.009981 0.779329
vt 0.012440 0.784862
vt 0.008074 0.786755
vt 0.307754 0.245038
vt 0.309829 0.252784
vt 0.312112 0.242523
vt 0.317781 0.248193
vt 0.317782 0.223108
vt 0.312112 0.228778
vt 0.307755 0.226262
vt 0.309831 0.218517
vt 0.322373 0.231060
vt 0.314628 0.233135
vt 0.314627 0.238166
vt 0.322373 0.240242
vt 0.302724 0.226262
vt 0.300649 0.218516
vt 0.298367 0.228777
vt 0.292697 0.223107
vt 0.295851 0.233134
vt 0.288106 0.231058
vt 0.295851 0.238165
vt 0.288106 0.240240
vt 0.006341 0.762957
vt 0.020523 0.763231
vt 0.020665 0.767844
vt 0.006692 0.768420
vt 0.013270 0.728710
vt 0.017571 0.730315
vt 0.015556 0.736006
vt 0.011185 0.734300
vt 0.002560 0.756688
vt 0.006933 0.757549
vt 0.001850 0.762805
vt 0.003506 0.775145
vt 0.007961 0.773882
vt 0.010491 0.792341
vt 0.014873 0.790590
vt 0.016813 0.796344
vt 0.012550 0.797879
vt 0.004172 0.750809
vt 0.008397 0.752230
vt 0.008848 0.739773
vt 0.013059 0.741615
vt 0.010538 0.746969
vt 0.006392 0.745210
vt 0.002177 0.769018
vt 0.024432 0.737934
vt 0.035750 0.738862
vt 0.035561 0.744351
vt 0.023244 0.743644
vt 0.021805 0.777598
vt 0.022770 0.783001
vt 0.025526 0.732081
vt 0.020798 0.758633
vt 0.021093 0.772586
vt 0.023860 0.788781
vt 0.024862 0.794692
vt 0.021350 0.753929
vt 0.022175 0.748976
vt 0.035490 0.749514
vt 0.057976 0.749721
vt 0.057510 0.754464
vt 0.035467 0.754344
vt 0.035364 0.763420
vt 0.035334 0.767905
vt 0.035195 0.777349
vt 0.035166 0.782532
vt 0.036100 0.733167
vt 0.035432 0.758937
vt 0.035271 0.772506
vt 0.035255 0.788047
vt 0.035510 0.793769
vt 0.058164 0.782554
vt 0.078655 0.782016
vt 0.078846 0.787359
vt 0.058555 0.787795
vt 0.058994 0.739527
vt 0.058511 0.744754
vt 0.057055 0.763636
vt 0.057107 0.768204
vt 0.057718 0.777573
vt 0.059311 0.733978
vt 0.057193 0.759070
vt 0.057338 0.772818
vt 0.058776 0.793356
vt 0.078698 0.750635
vt 0.078474 0.755258
vt 0.079261 0.740320
vt 0.078977 0.745657
vt 0.078254 0.763829
vt 0.078251 0.768038
vt 0.078464 0.777031
vt 0.079490 0.734790
vt 0.078325 0.759620
vt 0.078322 0.772403
vt 0.078978 0.792895
s 1
usemtl Sword_and_Shield
f 9/1/1 10/2/2 97/3/3
f 10/2/2 11/4/4 97/3/3
f 8/5/5 1/6/6 17/7/7 24/8/8
f 15/9/9 16/10/10 97/11/11
f 3/12/12 2/13/13 15/9/9 14/14/14
f 5/15/15 4/16/16 13/17/17 12/18/18
f 7/19/19 6/20/20 11/4/4 10/2/2
f 1/6/6 8/5/5 9/1/1 16/21/21
f 2/13/13 1/22/22 16/10/10 15/9/9
f 4/16/16 3/12/12 14/14/14 13/17/17
f 6/20/20 5/23/23 12/24/24 11/4/4
f 8/5/5 7/19/19 10/2/2 9/1/1
f 19/25/25 20/26/26 28/27/26 27/28/25
f 6/20/20 7/19/19 23/29/27 22/30/28
f 4/16/16 5/15/15 21/31/29 20/32/30
f 2/13/13 3/12/12 19/33/31 18/34/32
f 7/19/19 8/5/5 24/8/8 23/29/27
f 5/23/23 6/20/20 22/30/28 21/35/33
f 3/12/12 4/16/16 20/32/30 19/33/31
f 1/22/22 2/13/13 18/34/32 17/36/34
f 31/37/35 32/38/36 40/39/37 39/40/35
f 17/41/38 18/42/39 26/43/39 25/44/38
f 24/45/40 17/46/41 25/47/41 32/48/42
f 22/49/43 23/50/44 31/51/44 30/52/43
f 20/26/26 21/53/45 29/54/45 28/27/26
f 18/42/39 19/25/25 27/28/25 26/43/39
f 23/50/44 24/45/40 32/48/42 31/51/44
f 21/55/46 22/49/43 30/52/43 29/56/46
f 36/57/47 37/58/48 45/59/48 44/60/47
f 29/61/49 30/62/50 38/63/51 37/64/49
f 27/65/52 28/66/53 36/67/53 35/68/52
f 25/69/54 26/70/55 34/71/55 33/72/54
f 32/38/36 25/73/54 33/74/54 40/39/37
f 30/62/50 31/37/35 39/40/35 38/63/51
f 28/66/53 29/75/49 37/76/49 36/67/53
f 26/70/55 27/65/52 35/68/52 34/71/55
f 48/77/56 41/78/57 49/79/57 56/80/58
f 34/81/59 35/82/60 43/83/60 42/84/61
f 39/85/62 40/86/63 48/87/64 47/88/62
f 37/89/65 38/90/66 46/91/67 45/92/65
f 35/82/60 36/57/47 44/60/47 43/83/60
f 33/93/68 34/81/59 42/84/61 41/94/68
f 40/86/63 33/95/69 41/96/69 48/87/64
f 38/90/66 39/85/62 47/88/62 46/91/67
f 53/97/70 54/98/71 62/99/72 61/100/70
f 46/101/73 47/102/74 55/103/74 54/104/73
f 44/105/75 45/106/76 53/107/76 52/108/77
f 42/109/78 43/110/79 51/111/79 50/112/78
f 47/102/74 48/77/56 56/80/58 55/103/74
f 45/113/76 46/101/73 54/104/73 53/114/76
f 43/110/79 44/105/75 52/108/77 51/111/79
f 41/115/57 42/109/78 50/112/78 49/116/57
f 63/117/80 64/118/81 72/119/82 71/120/80
f 51/121/83 52/122/84 60/123/85 59/124/83
f 49/125/86 50/126/87 58/127/88 57/128/86
f 56/129/89 49/130/90 57/131/90 64/132/91
f 54/98/71 55/133/92 63/134/92 62/99/72
f 52/122/84 53/135/93 61/136/93 60/123/85
f 50/126/87 51/121/83 59/124/83 58/127/88
f 55/133/92 56/129/89 64/132/91 63/134/92
f 70/137/94 71/138/95 79/139/96 78/140/97
f 61/141/98 62/142/99 70/143/100 69/144/98
f 59/145/101 60/146/102 68/147/103 67/148/101
f 57/149/104 58/150/105 66/151/106 65/152/104
f 64/118/81 57/153/107 65/154/107 72/119/82
f 62/142/99 63/117/80 71/120/80 70/143/100
f 60/146/102 61/155/108 69/156/108 68/147/103
f 58/150/105 59/145/101 67/148/101 66/151/106
f 73/157/109 74/158/110 82/159/111 81/160/112
f 68/161/113 69/162/114 77/163/115 76/164/116
f 66/165/117 67/166/118 75/167/119 74/168/110
f 71/138/95 72/169/120 80/170/121 79/139/96
f 69/171/122 70/137/94 78/140/97 77/172/123
f 67/166/118 68/161/113 76/164/116 75/167/119
f 65/173/124 66/165/117 74/168/110 73/174/109
f 72/169/120 65/175/125 73/176/126 80/170/121
f 87/177/127 88/178/128 96/179/129 95/180/130
f 80/181/121 73/182/126 81/183/131 88/184/128
f 78/185/97 79/186/96 87/187/127 86/188/132
f 76/189/116 77/190/115 85/191/133 84/192/134
f 74/158/110 75/193/119 83/194/135 82/159/111
f 79/186/96 80/181/121 88/184/128 87/187/127
f 77/195/123 78/185/97 86/188/132 85/196/136
f 75/193/119 76/189/116 84/192/134 83/194/135
f 98/197/137 91/198/137 92/199/138 93/200/137
f 85/201/136 86/202/132 94/203/139 93/204/140
f 83/205/135 84/206/134 92/199/141 91/198/142
f 81/207/112 82/208/111 90/209/143 89/210/144
f 88/178/128 81/211/131 89/212/145 96/179/129
f 86/202/132 87/177/127 95/180/130 94/203/139
f 84/206/134 85/213/133 93/200/146 92/199/141
f 82/208/111 83/205/135 91/198/142 90/209/143
f 13/17/17 14/14/14 97/11/11
f 12/18/18 13/17/17 97/11/11
f 11/4/4 12/24/24 97/3/3
f 14/14/14 15/9/9 97/11/11
f 16/21/21 9/1/1 97/3/3
f 95/180/137 98/214/137 93/204/137 94/203/137
f 96/179/137 89/212/137 98/214/137 95/180/137
f 89/210/137 90/209/137 91/198/137 98/197/137
f 102/215/147 103/216/147 127/217/147 126/218/147
f 117/219/147 118/220/147 142/221/147 141/222/147
f 110/223/147 111/224/147 135/225/147 134/226/147
f 103/216/147 104/227/147 128/228/147 127/217/147
f 118/220/147 119/229/147 143/230/147 142/221/147
f 111/231/147 112/232/147 136/233/147 135/234/147
f 104/227/147 105/235/147 129/236/147 128/228/147
f 119/229/147 120/237/147 144/238/147 143/230/147
f 112/232/147 113/239/147 137/240/147 136/233/147
f 105/235/147 106/241/147 130/242/147 129/236/147
f 120/237/147 121/243/147 145/244/147 144/238/147
f 113/239/147 114/245/147 138/246/147 137/240/147
f 106/241/147 107/247/147 131/248/147 130/242/147
f 121/243/147 122/249/147 146/250/147 145/244/147
f 99/251/147 100/252/147 124/253/147 123/254/147
f 114/245/147 115/255/147 139/256/147 138/246/147
f 107/247/147 108/257/147 132/258/147 131/248/147
f 122/249/147 99/259/147 123/260/147 146/250/147
f 100/252/147 101/261/147 125/262/147 124/253/147
f 115/255/147 116/263/147 140/264/147 139/256/147
f 108/257/147 109/265/147 133/266/147 132/258/147
f 101/261/147 102/215/147 126/218/147 125/262/147
f 116/263/147 117/219/147 141/222/147 140/264/147
f 109/265/147 110/223/147 134/226/147 133/266/147
f 131/267/148 132/268/149 157/269/149 156/270/148
f 144/271/150 145/272/151 170/273/151 169/274/150
f 130/275/152 131/267/148 156/270/148 155/276/152
f 143/277/153 144/271/150 169/274/150 168/278/153
f 129/279/154 130/275/152 155/276/152 154/280/154
f 142/281/155 143/277/153 168/278/153 167/282/155
f 128/283/156 129/279/154 154/280/154 153/284/156
f 141/285/157 142/281/155 167/282/155 166/286/157
f 127/287/158 128/283/156 153/284/156 152/288/158
f 140/289/159 141/285/157 166/286/157 165/290/159
f 126/291/160 127/287/158 152/288/158 151/292/160
f 139/293/161 140/289/159 165/290/159 164/294/161
f 125/295/162 126/291/160 151/292/160 150/296/162
f 205/297/150 204/298/153 325/299/153 326/300/150
f 218/301/163 217/302/149 338/303/149 339/304/163
f 204/298/153 203/305/155 324/306/155 325/299/153
f 217/302/149 216/307/148 337/308/148 338/303/149
f 203/305/155 202/309/157 323/310/157 324/306/155
f 216/307/148 215/311/152 336/312/152 337/308/148
f 225/313/164 226/314/165 250/315/166 249/316/167
f 202/309/157 201/317/159 322/318/159 323/310/157
f 215/311/152 214/319/154 335/320/154 336/312/152
f 201/317/159 200/321/161 321/322/161 322/318/159
f 214/319/154 213/323/156 334/324/156 335/320/154
f 200/321/161 199/325/168 320/326/168 321/322/161
f 213/323/156 212/327/158 333/328/158 334/324/156
f 148/329/169 318/330/169 317/331/170 149/332/170
f 145/272/151 146/333/171 171/334/171 170/273/151
f 132/268/149 133/335/163 158/336/163 157/269/149
f 146/333/171 123/337/172 149/338/172 171/334/171
f 133/335/163 134/339/173 159/340/173 158/336/163
f 134/339/173 135/341/174 160/342/174 159/340/173
f 135/343/174 136/344/175 161/345/175 160/346/174
f 136/344/175 137/347/176 162/348/176 161/345/175
f 123/349/172 124/350/177 148/351/177 149/352/172
f 137/347/176 138/353/168 163/354/168 162/348/176
f 124/350/177 125/295/162 150/296/162 148/351/177
f 138/353/168 139/293/161 164/294/161 163/354/168
f 101/355/176 100/356/175 173/357/175 174/358/176
f 116/359/156 115/360/158 188/361/158 189/362/156
f 109/363/151 108/364/150 181/365/150 182/366/151
f 102/367/168 101/355/176 174/358/176 175/368/168
f 117/369/154 116/359/156 189/362/156 190/370/154
f 110/371/171 109/363/151 182/366/151 183/372/171
f 103/373/161 102/367/168 175/368/168 176/374/161
f 118/375/152 117/369/154 190/370/154 191/376/152
f 111/377/172 110/371/171 183/372/171 184/378/172
f 104/379/159 103/373/161 176/374/161 177/380/159
f 119/381/148 118/375/152 191/376/152 192/382/148
f 112/383/177 111/384/172 184/385/172 185/386/177
f 105/387/157 104/379/159 177/380/159 178/388/157
f 120/389/149 119/381/148 192/382/148 193/390/149
f 113/391/162 112/383/177 185/386/177 186/392/162
f 106/393/155 105/387/157 178/388/157 179/394/155
f 121/395/163 120/389/149 193/390/149 194/396/163
f 114/397/160 113/391/162 186/392/162 187/398/160
f 107/399/153 106/393/155 179/394/155 180/400/153
f 122/401/173 121/395/163 194/396/163 195/402/173
f 100/356/175 99/403/174 172/404/174 173/357/175
f 115/360/158 114/397/160 187/398/160 188/361/158
f 108/364/150 107/399/153 180/400/153 181/365/150
f 99/405/174 122/401/173 195/402/173 172/406/174
f 182/407/178 181/408/178 196/409/178
f 175/410/178 174/411/178 196/409/178
f 190/412/178 189/413/178 196/414/178
f 183/415/178 182/407/178 196/409/178
f 176/416/178 175/410/178 196/409/178
f 191/417/178 190/412/178 196/414/178
f 184/418/178 183/415/178 196/409/178
f 177/419/178 176/416/178 196/409/178
f 192/420/178 191/417/178 196/414/178
f 185/421/178 184/422/178 196/414/178
f 178/423/178 177/419/178 196/409/178
f 193/424/178 192/420/178 196/414/178
f 186/425/178 185/421/178 196/414/178
f 179/426/178 178/423/178 196/409/178
f 194/427/178 193/424/178 196/414/178
f 187/428/178 186/425/178 196/414/178
f 180/429/178 179/426/178 196/409/178
f 195/430/178 194/427/178 196/414/178
f 173/431/178 172/432/178 196/409/178
f 188/433/178 187/428/178 196/414/178
f 181/408/178 180/429/178 196/409/178
f 172/434/178 195/430/178 196/414/178
f 174/411/178 173/431/178 196/409/178
f 189/413/178 188/433/178 196/414/178
f 199/325/168 198/435/176 319/436/176 320/326/168
f 206/437/179 207/438/180 230/439/180 229/440/179
f 199/441/181 200/442/182 223/443/182 222/444/181
f 214/445/183 215/446/184 238/447/184 237/448/183
f 207/438/180 208/449/185 231/450/185 230/439/180
f 200/442/182 201/451/186 224/452/186 223/443/182
f 215/446/184 216/453/187 239/454/187 238/447/184
f 208/455/185 209/456/188 232/457/188 231/458/185
f 201/451/186 202/459/189 225/460/189 224/452/186
f 216/453/187 217/461/190 240/462/190 239/454/187
f 209/456/188 210/463/191 233/464/191 232/457/188
f 202/459/189 203/465/192 226/466/192 225/460/189
f 217/461/190 218/467/193 241/468/193 240/462/190
f 210/463/191 211/469/194 234/470/194 233/464/191
f 203/465/192 204/471/195 227/472/195 226/466/192
f 218/467/193 219/473/196 242/474/196 241/468/193
f 220/475/197 197/476/198 147/477/198 243/478/197
f 211/469/194 212/479/199 235/480/199 234/470/194
f 204/471/195 205/481/200 228/482/200 227/472/195
f 219/473/196 220/483/197 243/484/197 242/474/196
f 197/476/198 198/485/201 221/486/201 147/477/198
f 212/479/199 213/487/202 236/488/202 235/480/199
f 205/481/200 206/437/179 229/440/179 228/482/200
f 198/485/201 199/441/181 222/444/181 221/486/201
f 213/487/202 214/445/183 237/448/183 236/488/202
f 254/489/203 255/490/204 279/491/205 278/492/206
f 232/493/207 233/494/208 257/495/209 256/496/210
f 239/497/211 240/498/212 264/499/213 263/500/214
f 224/501/215 225/313/164 249/316/167 248/502/216
f 231/503/217 232/493/207 256/496/210 255/504/204
f 238/505/218 239/497/211 263/500/214 262/506/219
f 223/507/220 224/501/215 248/502/216 247/508/221
f 230/509/222 231/510/217 255/490/204 254/489/203
f 237/511/223 238/505/218 262/506/219 261/512/224
f 222/513/225 223/507/220 247/508/221 246/514/226
f 229/515/227 230/509/222 254/489/203 253/516/228
f 236/517/229 237/511/223 261/512/224 260/518/230
f 221/519/231 222/513/225 246/514/226 245/520/232
f 228/521/233 229/515/227 253/516/228 252/522/234
f 235/523/235 236/517/229 260/518/230 259/524/236
f 147/525/237 221/519/231 245/520/232 244/526/238
f 242/527/239 243/528/240 267/529/241 266/530/242
f 227/531/243 228/521/233 252/522/234 251/532/244
f 234/533/245 235/523/235 259/524/236 258/534/246
f 243/535/240 147/525/237 244/526/238 267/536/241
f 241/537/247 242/527/239 266/530/242 265/538/248
f 226/314/165 227/531/243 251/532/244 250/315/166
f 233/494/208 234/533/245 258/534/246 257/495/209
f 240/498/212 241/537/247 265/538/248 264/499/213
f 290/539/249 291/540/250 316/541/251 315/542/252
f 261/512/224 262/506/219 286/543/253 285/544/254
f 246/514/226 247/508/221 271/545/255 270/546/256
f 253/516/228 254/489/203 278/492/206 277/547/257
f 260/518/230 261/512/224 285/544/254 284/548/258
f 245/520/232 246/514/226 270/546/256 269/549/259
f 252/522/234 253/516/228 277/547/257 276/550/260
f 259/524/236 260/518/230 284/548/258 283/551/261
f 244/526/238 245/520/232 269/549/259 268/552/262
f 266/530/242 267/529/241 291/540/250 290/539/249
f 251/532/244 252/522/234 276/550/260 275/553/263
f 258/534/246 259/524/236 283/551/261 282/554/264
f 267/536/241 244/526/238 268/552/262 291/555/250
f 265/538/248 266/530/242 290/539/249 289/556/265
f 250/315/166 251/532/244 275/553/263 274/557/266
f 257/495/209 258/534/246 282/554/264 281/558/267
f 264/499/213 265/538/248 289/556/265 288/559/268
f 249/316/167 250/315/166 274/557/266 273/560/269
f 256/496/210 257/495/209 281/558/267 280/561/270
f 263/500/214 264/499/213 288/559/268 287/562/271
f 248/502/216 249/316/167 273/560/269 272/563/272
f 255/504/204 256/496/210 280/561/270 279/564/205
f 262/506/219 263/500/214 287/562/271 286/543/253
f 247/508/221 248/502/216 272/563/272 271/545/255
f 291/555/250 268/552/262 293/565/273 316/566/251
f 275/553/263 276/550/260 301/567/274 300/568/275
f 282/554/264 283/551/261 308/569/276 307/570/277
f 289/556/265 290/539/249 315/542/252 314/571/278
f 274/557/266 275/553/263 300/568/275 299/572/279
f 281/558/267 282/554/264 307/570/277 306/573/280
f 288/559/268 289/556/265 314/571/278 313/574/281
f 273/560/269 274/557/266 299/572/279 298/575/282
f 280/561/270 281/558/267 306/573/280 305/576/283
f 287/562/271 288/559/268 313/574/281 312/577/284
f 272/563/272 273/560/269 298/575/282 297/578/285
f 279/564/205 280/561/270 305/576/283 304/579/286
f 286/543/253 287/562/271 312/577/284 311/580/287
f 271/545/255 272/563/272 297/578/285 296/581/288
f 278/492/206 279/491/205 304/582/286 303/583/289
f 285/544/254 286/543/253 311/580/287 310/584/290
f 270/546/256 271/545/255 296/581/288 295/585/291
f 277/547/257 278/492/206 303/583/289 302/586/292
f 284/548/258 285/544/254 310/584/290 309/587/293
f 276/550/260 277/547/257 302/586/292 301/567/274
f 283/551/261 284/548/258 309/587/293 308/569/276
f 269/549/259 270/546/256 295/585/291 294/588/294
f 315/542/252 316/541/251 292/589/147
f 314/571/278 315/542/252 292/589/147
f 313/574/281 314/571/278 292/589/147
f 312/577/284 313/574/281 292/589/147
f 311/580/287 312/577/284 292/589/147
f 310/584/290 311/580/287 292/589/147
f 309/587/293 310/584/290 292/589/147
f 308/569/276 309/587/293 292/589/147
f 307/570/277 308/569/276 292/589/147
f 306/573/280 307/570/277 292/589/147
f 305/576/283 306/573/280 292/589/147
f 304/579/286 305/576/283 292/589/147
f 303/583/289 304/582/286 292/590/147
f 302/586/292 303/583/289 292/590/147
f 301/567/274 302/586/292 292/590/147
f 300/568/275 301/567/274 292/590/147
f 299/572/279 300/568/275 292/590/147
f 298/575/282 299/572/279 292/590/147
f 297/578/285 298/575/282 292/590/147
f 296/581/288 297/578/285 292/590/147
f 295/585/291 296/581/288 292/590/147
f 294/588/294 295/585/291 292/590/147
f 293/565/273 294/588/294 292/590/147
f 316/566/251 293/565/273 292/590/147
f 268/552/262 269/549/259 294/588/294 293/565/273
f 157/591/295 326/592/295 325/593/296 156/594/296
f 170/595/297 339/596/297 338/597/298 169/598/298
f 163/599/299 332/600/299 331/601/300 162/602/300
f 171/603/301 340/604/301 339/596/297 170/595/297
f 156/594/296 325/593/296 324/605/302 155/606/302
f 164/607/303 333/608/303 332/600/299 163/599/299
f 149/609/170 317/610/170 340/604/301 171/603/301
f 150/611/304 319/612/304 318/330/169 148/329/169
f 165/613/305 334/614/305 333/608/303 164/607/303
f 159/615/306 328/616/306 327/617/307 158/618/307
f 152/619/308 321/620/308 320/621/309 151/622/309
f 167/623/310 336/624/310 335/625/311 166/626/311
f 151/622/309 320/621/309 319/612/304 150/611/304
f 166/626/311 335/625/311 334/614/305 165/613/305
f 160/627/312 329/628/312 328/616/306 159/615/306
f 153/629/313 322/630/313 321/620/308 152/619/308
f 168/631/314 337/632/314 336/624/310 167/623/310
f 161/633/315 330/634/315 329/635/312 160/636/312
f 154/637/316 323/638/316 322/630/313 153/629/313
f 169/598/298 338/597/298 337/632/314 168/631/314
f 162/602/300 331/601/300 330/634/315 161/633/315
f 155/606/302 324/605/302 323/638/316 154/637/316
f 158/618/307 327/617/307 326/592/295 157/591/295
f 219/639/173 218/301/163 339/304/163 340/640/173
f 206/641/151 205/297/150 326/300/150 327/642/151
f 220/643/174 219/639/173 340/640/173 317/644/174
f 207/645/171 206/641/151 327/642/151 328/646/171
f 208/647/172 207/645/171 328/646/171 329/648/172
f 209/649/177 208/650/172 329/651/172 330/652/177
f 210/653/162 209/649/177 330/652/177 331/654/162
f 197/655/175 220/656/174 317/657/174 318/658/175
f 211/659/160 210/653/162 331/654/162 332/660/160
f 198/435/176 197/655/175 318/658/175 319/436/176
f 212/327/158 211/659/160 332/660/160 333/328/158
f 341/661/317 342/662/317 344/663/318 343/664/318
f 343/664/318 344/663/318 346/665/319 345/666/319
f 345/667/319 346/668/319 348/669/320 347/670/320
f 347/670/320 348/669/320 350/671/321 349/672/321
f 349/672/321 350/671/321 352/673/322 351/674/322
f 351/674/322 352/673/322 354/675/323 353/676/323
f 353/676/323 354/675/323 356/677/324 355/678/324
f 355/678/324 356/677/324 358/679/325 357/680/325
f 357/680/325 358/679/325 360/681/326 359/682/326
f 359/682/326 360/681/326 362/683/327 361/684/327
f 354/685/178 352/686/178 370/687/178 371/688/178
f 361/684/327 362/683/327 364/689/328 363/690/328
f 363/690/328 364/689/328 342/662/317 341/661/317
f 371/691/323 370/692/322 382/693/329 383/694/330
f 352/686/178 350/695/178 369/696/178 370/687/178
f 350/695/178 348/697/178 368/698/178 369/696/178
f 342/699/178 364/700/178 376/701/178 366/702/178
f 344/703/178 342/699/178 366/702/178 365/704/178
f 348/697/178 346/705/178 367/706/178 368/698/178
f 364/700/178 362/707/178 375/708/178 376/701/178
f 346/705/178 344/703/178 365/704/178 367/709/178
f 362/707/178 360/710/178 374/711/178 375/708/178
f 360/710/178 358/712/178 373/713/178 374/711/178
f 358/712/178 356/714/178 372/715/178 373/713/178
f 356/714/178 354/685/178 371/688/178 372/715/178
f 386/716/331 385/717/332 397/718/333 398/719/334
f 368/720/320 367/721/319 379/722/335 380/723/336
f 375/724/327 374/725/326 386/716/331 387/726/337
f 372/727/324 371/691/323 383/694/330 384/728/338
f 369/729/321 368/720/320 380/723/336 381/730/339
f 376/731/328 375/724/327 387/726/337 388/732/340
f 365/733/318 366/734/317 378/735/341 377/736/342
f 373/737/325 372/727/324 384/728/338 385/717/332
f 370/692/322 369/729/321 381/730/339 382/693/329
f 366/734/317 376/731/328 388/732/340 378/735/341
f 367/738/319 365/733/318 377/736/342 379/739/335
f 374/725/326 373/737/325 385/717/332 386/716/331
f 391/740/343 389/741/344 401/742/345 403/743/346
f 383/694/330 382/693/329 394/744/347 395/745/348
f 380/723/336 379/722/335 391/746/343 392/747/349
f 387/726/337 386/716/331 398/719/334 399/748/350
f 384/728/338 383/694/330 395/745/348 396/749/351
f 381/730/339 380/723/336 392/747/349 393/750/352
f 388/732/340 387/726/337 399/748/350 400/751/353
f 377/736/342 378/735/341 390/752/354 389/741/344
f 385/717/332 384/728/338 396/749/351 397/718/333
f 382/693/329 381/730/339 393/750/352 394/744/347
f 378/735/341 388/732/340 400/751/353 390/752/354
f 379/739/335 377/736/342 389/741/344 391/740/343
f 402/753/355 412/754/356 424/755/357 414/756/358
f 398/719/334 397/718/333 409/757/359 410/758/360
f 395/745/348 394/744/347 406/759/361 407/760/362
f 392/747/349 391/746/343 403/761/346 404/762/363
f 399/748/350 398/719/334 410/758/360 411/763/364
f 396/749/351 395/745/348 407/760/362 408/764/365
f 393/750/352 392/747/349 404/762/363 405/765/366
f 400/751/353 399/748/350 411/763/364 412/754/356
f 389/741/344 390/752/354 402/753/355 401/742/345
f 397/718/333 396/749/351 408/764/365 409/757/359
f 394/744/347 393/750/352 405/765/366 406/759/361
f 390/752/354 400/751/353 412/754/356 402/753/355
f 418/766/367 417/767/368 429/768/369 430/769/370
f 403/743/346 401/742/345 413/770/371 415/771/372
f 410/758/360 409/757/359 421/772/373 422/773/374
f 407/760/362 406/759/361 418/766/367 419/774/375
f 404/762/363 403/761/346 415/775/372 416/776/376
f 411/763/364 410/758/360 422/773/374 423/777/377
f 408/764/365 407/760/362 419/774/375 420/778/378
f 405/765/366 404/762/363 416/776/376 417/767/368
f 412/754/356 411/763/364 423/777/377 424/755/357
f 401/742/345 402/753/355 414/756/358 413/770/371
f 409/757/359 408/764/365 420/778/378 421/772/373
f 406/759/361 405/765/366 417/767/368 418/766/367
f 414/756/358 424/755/357 436/779/379 426/780/380
f 415/771/372 413/770/371 425/781/381 427/782/382
f 422/773/374 421/772/373 433/783/383 434/784/384
f 419/774/375 418/766/367 430/769/370 431/785/385
f 416/776/376 415/775/372 427/786/382 428/787/386
f 423/777/377 422/773/374 434/784/384 435/788/387
f 420/778/378 419/774/375 431/785/385 432/789/388
f 417/767/368 416/776/376 428/787/386 429/768/369
f 424/755/357 423/777/377 435/788/387 436/779/379
f 413/770/371 414/756/358 426/780/380 425/781/381
f 421/772/373 420/778/378 432/789/388 433/783/383
f 437/790/317 439/791/328 440/792/328 438/793/317
f 439/791/328 441/794/327 442/795/327 440/792/328
f 441/796/327 443/797/326 444/798/326 442/799/327
f 443/797/326 445/800/325 446/801/325 444/798/326
f 445/800/325 447/802/324 448/803/324 446/801/325
f 447/802/324 449/804/323 450/805/323 448/803/324
f 449/804/323 451/806/322 452/807/322 450/805/323
f 451/806/322 453/808/321 454/809/321 452/807/322
f 453/808/321 455/810/320 456/811/320 454/809/321
f 455/810/320 457/812/319 458/813/319 456/811/320
f 450/814/178 467/815/178 466/816/178 448/817/178
f 457/812/319 459/818/318 460/819/318 458/813/319
f 459/818/318 437/790/317 438/793/317 460/819/318
f 467/820/323 479/821/389 478/822/390 466/823/324
f 448/817/178 466/816/178 465/824/178 446/825/178
f 446/825/178 465/824/178 464/826/178 444/827/178
f 438/828/178 462/829/178 472/830/178 460/831/178
f 440/832/178 461/833/178 462/829/178 438/828/178
f 444/827/178 464/826/178 463/834/178 442/835/178
f 460/831/178 472/830/178 471/836/178 458/837/178
f 442/835/178 463/834/178 461/833/178 440/832/178
f 458/837/178 471/836/178 470/838/178 456/839/178
f 456/839/178 470/838/178 469/840/178 454/841/178
f 454/841/178 469/840/178 468/842/178 452/843/178
f 452/843/178 468/842/178 467/815/178 450/814/178
f 482/844/391 494/845/392 493/846/393 481/847/394
f 464/848/326 476/849/395 475/850/396 463/851/327
f 471/852/319 483/853/397 482/844/391 470/854/320
f 468/855/322 480/856/398 479/821/389 467/820/323
f 465/857/325 477/858/399 476/849/395 464/848/326
f 472/859/318 484/860/400 483/853/397 471/852/319
f 461/861/328 473/862/401 474/863/402 462/864/317
f 469/865/321 481/847/394 480/856/398 468/855/322
f 466/823/324 478/822/390 477/858/399 465/857/325
f 462/864/317 474/863/402 484/860/400 472/859/318
f 463/866/327 475/867/396 473/862/401 461/861/328
f 470/854/320 482/844/391 481/847/394 469/865/321
f 487/868/403 499/869/404 497/870/405 485/871/406
f 479/821/389 491/872/407 490/873/408 478/822/390
f 476/849/395 488/874/409 487/875/403 475/850/396
f 483/853/397 495/876/410 494/845/392 482/844/391
f 480/856/398 492/877/411 491/872/407 479/821/389
f 477/858/399 489/878/412 488/874/409 476/849/395
f 484/860/400 496/879/413 495/876/410 483/853/397
f 473/862/401 485/871/406 486/880/414 474/863/402
f 481/847/394 493/846/393 492/877/411 480/856/398
f 478/822/390 490/873/408 489/878/412 477/858/399
f 474/863/402 486/880/414 496/879/413 484/860/400
f 475/867/396 487/868/403 485/871/406 473/862/401
f 498/881/415 510/882/416 520/883/417 508/884/418
f 494/845/392 506/885/419 505/886/420 493/846/393
f 491/872/407 503/887/421 502/888/422 490/873/408
f 488/874/409 500/889/423 499/890/404 487/875/403
f 495/876/410 507/891/424 506/885/419 494/845/392
f 492/877/411 504/892/425 503/887/421 491/872/407
f 489/878/412 501/893/426 500/889/423 488/874/409
f 496/879/413 508/884/418 507/891/424 495/876/410
f 485/871/406 497/870/405 498/881/415 486/880/414
f 493/846/393 505/886/420 504/892/425 492/877/411
f 490/873/408 502/888/422 501/893/426 489/878/412
f 486/880/414 498/881/415 508/884/418 496/879/413
f 514/894/427 526/895/428 525/896/429 513/897/430
f 499/869/404 511/898/431 509/899/432 497/870/405
f 506/885/419 518/900/433 517/901/434 505/886/420
f 503/887/421 515/902/435 514/894/427 502/888/422
f 500/889/423 512/903/436 511/904/431 499/890/404
f 507/891/424 519/905/437 518/900/433 506/885/419
f 504/892/425 516/906/438 515/902/435 503/887/421
f 501/893/426 513/897/430 512/903/436 500/889/423
f 508/884/418 520/883/417 519/905/437 507/891/424
f 497/870/405 509/899/432 510/882/416 498/881/415
f 505/886/420 517/901/434 516/906/438 504/892/425
f 502/888/422 514/894/427 513/897/430 501/893/426
f 510/882/416 522/907/439 532/908/440 520/883/417
f 511/898/431 523/909/441 521/910/442 509/899/432
f 518/900/433 530/911/443 529/912/444 517/901/434
f 515/902/435 527/913/445 526/895/428 514/894/427
f 512/903/436 524/914/446 523/915/441 511/904/431
f 519/905/437 531/916/447 530/911/443 518/900/433
f 516/906/438 528/917/448 527/913/445 515/902/435
f 513/897/430 525/896/429 524/914/446 512/903/436
f 520/883/417 532/908/440 531/916/447 519/905/437
f 509/899/432 521/910/442 522/907/439 510/882/416
f 517/901/434 529/912/444 528/917/448 516/906/438
f 523/915/441 524/914/446 428/787/386 427/786/382
f 521/910/442 523/909/441 427/782/382 425/781/381
f 524/914/446 525/896/429 429/768/369 428/787/386
f 525/896/429 526/895/428 430/769/370 429/768/369
f 526/895/428 527/913/445 431/785/385 430/769/370
f 527/913/445 528/917/448 432/789/388 431/785/385
f 528/917/448 529/912/444 433/783/383 432/789/388
f 529/912/444 530/911/443 434/784/384 433/783/383
f 530/911/443 531/916/447 435/788/387 434/784/384
f 531/916/447 532/908/440 436/779/379 435/788/387
f 532/908/440 522/907/439 426/780/380 436/779/379
f 522/907/439 521/910/442 425/781/381 426/780/380
f 533/918/449 534/919/449 536/920/450 535/921/450
f 535/921/450 536/920/450 538/922/451 537/923/451
f 537/923/451 538/922/451 540/924/452 539/925/452
f 539/926/452 540/927/452 542/928/453 541/929/453
f 541/929/453 542/928/453 544/930/454 543/931/454
f 543/931/454 544/930/454 546/932/455 545/933/455
f 545/933/455 546/932/455 548/934/456 547/935/456
f 547/935/456 548/934/456 550/936/457 549/937/457
f 549/937/457 550/936/457 552/938/458 551/939/458
f 551/939/458 552/938/458 554/940/459 553/941/459
f 546/942/178 544/943/178 562/944/178 563/945/178
f 553/941/459 554/940/459 556/946/460 555/947/460
f 555/947/460 556/946/460 534/919/449 533/918/449
f 563/948/455 562/949/454 574/950/461 575/951/462
f 544/943/178 542/952/178 561/953/178 562/944/178
f 542/952/178 540/954/178 560/955/178 561/953/178
f 534/956/178 556/957/178 568/958/178 558/959/178
f 536/960/178 534/956/178 558/959/178 557/961/178
f 540/962/178 538/963/178 559/964/178 560/955/178
f 556/957/178 554/965/178 567/966/178 568/958/178
f 538/963/178 536/960/178 557/961/178 559/964/178
f 554/965/178 552/967/178 566/968/178 567/966/178
f 552/967/178 550/969/178 565/970/178 566/968/178
f 550/969/178 548/971/178 564/972/178 565/970/178
f 548/971/178 546/942/178 563/945/178 564/972/178
f 578/973/463 577/974/464 589/975/465 590/976/466
f 560/977/467 559/978/451 571/979/468 572/980/469
f 567/981/459 566/982/458 578/973/463 579/983/470
f 564/984/456 563/948/455 575/951/462 576/985/471
f 561/986/453 560/987/467 572/988/469 573/989/472
f 568/990/460 567/981/459 579/983/470 580/991/473
f 557/992/450 558/993/449 570/994/474 569/995/475
f 565/996/457 564/984/456 576/985/471 577/974/464
f 562/949/454 561/986/453 573/989/472 574/950/461
f 558/993/449 568/990/460 580/991/473 570/994/474
f 559/978/451 557/992/450 569/995/475 571/979/468
f 566/982/458 565/996/457 577/974/464 578/973/463
f 583/997/476 581/998/477 593/999/478 595/1000/479
f 575/951/462 574/950/461 586/1001/480 587/1002/481
f 572/980/469 571/979/468 583/997/476 584/1003/482
f 579/983/470 578/973/463 590/976/466 591/1004/483
f 576/985/471 575/951/462 587/1002/481 588/1005/484
f 573/989/472 572/988/469 584/1006/482 585/1007/485
f 580/991/473 579/983/470 591/1004/483 592/1008/486
f 569/995/475 570/994/474 582/1009/487 581/998/477
f 577/974/464 576/985/471 588/1005/484 589/975/465
f 574/950/461 573/989/472 585/1007/485 586/1001/480
f 570/994/474 580/991/473 592/1008/486 582/1009/487
f 571/979/468 569/995/475 581/998/477 583/997/476
f 594/1010/488 604/1011/489 616/1012/490 606/1013/491
f 590/976/466 589/975/465 601/1014/492 602/1015/493
f 587/1002/481 586/1001/480 598/1016/494 599/1017/495
f 584/1003/482 583/997/476 595/1000/479 596/1018/496
f 591/1004/483 590/976/466 602/1015/493 603/1019/497
f 588/1005/484 587/1002/481 599/1017/495 600/1020/498
f 585/1007/485 584/1006/482 596/1021/496 597/1022/499
f 592/1008/486 591/1004/483 603/1019/497 604/1011/489
f 581/998/477 582/1009/487 594/1010/488 593/999/478
f 589/975/465 588/1005/484 600/1020/498 601/1014/492
f 586/1001/480 585/1007/485 597/1022/499 598/1016/494
f 582/1009/487 592/1008/486 604/1011/489 594/1010/488
f 610/1023/500 609/1024/501 621/1025/502 622/1026/503
f 595/1000/479 593/999/478 605/1027/504 607/1028/505
f 602/1015/493 601/1014/492 613/1029/506 614/1030/507
f 599/1017/495 598/1016/494 610/1023/500 611/1031/508
f 596/1018/496 595/1000/479 607/1028/505 608/1032/509
f 603/1019/497 602/1015/493 614/1030/507 615/1033/510
f 600/1020/498 599/1017/495 611/1031/508 612/1034/511
f 597/1022/499 596/1021/496 608/1035/509 609/1024/501
f 604/1011/489 603/1019/497 615/1033/510 616/1012/490
f 593/999/478 594/1010/488 606/1013/491 605/1027/504
f 601/1014/492 600/1020/498 612/1034/511 613/1029/506
f 598/1016/494 597/1022/499 609/1024/501 610/1023/500
f 606/1013/491 616/1012/490 628/1036/512 618/1037/513
f 607/1028/505 605/1027/504 617/1038/514 619/1039/515
f 614/1030/507 613/1029/506 625/1040/516 626/1041/517
f 611/1031/508 610/1023/500 622/1026/503 623/1042/518
f 608/1032/509 607/1028/505 619/1039/515 620/1043/519
f 615/1033/510 614/1030/507 626/1041/517 627/1044/520
f 612/1034/511 611/1031/508 623/1042/518 624/1045/521
f 609/1024/501 608/1035/509 620/1046/519 621/1025/502
f 616/1012/490 615/1033/510 627/1044/520 628/1036/512
f 605/1027/504 606/1013/491 618/1037/513 617/1038/514
f 613/1029/506 612/1034/511 624/1045/521 625/1040/516
f 629/1047/449 631/1048/460 632/1049/460 630/1050/449
f 631/1048/460 633/1051/459 634/1052/459 632/1049/460
f 633/1051/459 635/1053/458 636/1054/458 634/1052/459
f 635/1055/458 637/1056/457 638/1057/457 636/1058/458
f 637/1056/457 639/1059/456 640/1060/456 638/1057/457
f 639/1059/456 641/1061/455 642/1062/455 640/1060/456
f 641/1061/455 643/1063/454 644/1064/454 642/1062/455
f 643/1063/454 645/1065/453 646/1066/453 644/1064/454
f 645/1065/453 647/1067/452 648/1068/452 646/1066/453
f 647/1067/452 649/1069/451 650/1070/451 648/1068/452
f 642/1071/178 659/1072/178 658/1073/178 640/1074/178
f 649/1069/451 651/1075/450 652/1076/450 650/1070/451
f 651/1075/450 629/1047/449 630/1050/449 652/1076/450
f 659/1077/455 671/1078/522 670/1079/523 658/1080/456
f 640/1074/178 658/1073/178 657/1081/178 638/1082/178
f 638/1082/178 657/1081/178 656/1083/178 636/1084/178
f 630/1085/178 654/1086/178 664/1087/178 652/1088/178
f 632/1089/178 653/1090/178 654/1086/178 630/1085/178
f 636/1084/178 656/1083/178 655/1091/178 634/1092/178
f 652/1088/178 664/1087/178 663/1093/178 650/1094/178
f 634/1092/178 655/1091/178 653/1090/178 632/1089/178
f 650/1094/178 663/1093/178 662/1095/178 648/1096/178
f 648/1096/178 662/1095/178 661/1097/178 646/1098/178
f 646/1098/178 661/1097/178 660/1099/178 644/1100/178
f 644/1100/178 660/1099/178 659/1072/178 642/1071/178
f 674/1101/524 686/1102/525 685/1103/526 673/1104/527
f 656/1105/458 668/1106/528 667/1107/529 655/1108/459
f 663/1109/451 675/1110/530 674/1101/524 662/1111/452
f 660/1112/454 672/1113/531 671/1078/522 659/1077/455
f 657/1114/457 669/1115/532 668/1116/528 656/1117/458
f 664/1118/450 676/1119/533 675/1110/530 663/1109/451
f 653/1120/460 665/1121/534 666/1122/535 654/1123/449
f 661/1124/453 673/1104/527 672/1113/531 660/1112/454
f 658/1080/456 670/1079/523 669/1115/532 657/1114/457
f 654/1123/449 666/1122/535 676/1119/533 664/1118/450
f 655/1108/459 667/1107/529 665/1121/534 653/1120/460
f 662/1111/452 674/1101/524 673/1104/527 661/1124/453
f 679/1125/536 691/1126/537 689/1127/538 677/1128/539
f 671/1078/522 683/1129/540 682/1130/541 670/1079/523
f 668/1106/528 680/1131/542 679/1125/536 667/1107/529
f 675/1110/530 687/1132/543 686/1102/525 674/1101/524
f 672/1113/531 684/1133/544 683/1129/540 671/1078/522
f 669/1115/532 681/1134/545 680/1135/542 668/1116/528
f 676/1119/533 688/1136/546 687/1132/543 675/1110/530
f 665/1121/534 677/1128/539 678/1137/547 666/1122/535
f 673/1104/527 685/1103/526 684/1133/544 672/1113/531
f 670/1079/523 682/1130/541 681/1134/545 669/1115/532
f 666/1122/535 678/1137/547 688/1136/546 676/1119/533
f 667/1107/529 679/1125/536 677/1128/539 665/1121/534
f 690/1138/548 702/1139/549 712/1140/550 700/1141/551
f 686/1102/525 698/1142/552 697/1143/553 685/1103/526
f 683/1129/540 695/1144/554 694/1145/555 682/1130/541
f 680/1131/542 692/1146/556 691/1126/537 679/1125/536
f 687/1132/543 699/1147/557 698/1142/552 686/1102/525
f 684/1133/544 696/1148/558 695/1144/554 683/1129/540
f 681/1134/545 693/1149/559 692/1150/556 680/1135/542
f 688/1136/546 700/1141/551 699/1147/557 687/1132/543
f 677/1128/539 689/1127/538 690/1138/548 678/1137/547
f 685/1103/526 697/1143/553 696/1148/558 684/1133/544
f 682/1130/541 694/1145/555 693/1149/559 681/1134/545
f 678/1137/547 690/1138/548 700/1141/551 688/1136/546
f 706/1151/560 718/1152/561 717/1153/562 705/1154/563
f 691/1126/537 703/1155/564 701/1156/565 689/1127/538
f 698/1142/552 710/1157/566 709/1158/567 697/1143/553
f 695/1144/554 707/1159/568 706/1151/560 694/1145/555
f 692/1146/556 704/1160/569 703/1155/564 691/1126/537
f 699/1147/557 711/1161/570 710/1157/566 698/1142/552
f 696/1148/558 708/1162/571 707/1159/568 695/1144/554
f 693/1149/559 705/1154/563 704/1163/569 692/1150/556
f 700/1141/551 712/1140/550 711/1161/570 699/1147/557
f 689/1127/538 701/1156/565 702/1139/549 690/1138/548
f 697/1143/553 709/1158/567 708/1162/571 696/1148/558
f 694/1145/555 706/1151/560 705/1154/563 693/1149/559
f 702/1139/549 714/1164/572 724/1165/573 712/1140/550
f 703/1155/564 715/1166/574 713/1167/575 701/1156/565
f 710/1157/566 722/1168/576 721/1169/577 709/1158/567
f 707/1159/568 719/1170/578 718/1152/561 706/1151/560
f 704/1160/569 716/1171/579 715/1166/574 703/1155/564
f 711/1161/570 723/1172/580 722/1168/576 710/1157/566
f 708/1162/571 720/1173/581 719/1170/578 707/1159/568
f 705/1154/563 717/1153/562 716/1174/579 704/1163/569
f 712/1140/550 724/1165/573 723/1172/580 711/1161/570
f 701/1156/565 713/1167/575 714/1164/572 702/1139/549
f 709/1158/567 721/1169/577 720/1173/581 708/1162/571
f 715/1166/574 716/1171/579 620/1043/519 619/1039/515
f 713/1167/575 715/1166/574 619/1039/515 617/1038/514
f 716/1174/579 717/1153/562 621/1025/502 620/1046/519
f 717/1153/562 718/1152/561 622/1026/503 621/1025/502
f 718/1152/561 719/1170/578 623/1042/518 622/1026/503
f 719/1170/578 720/1173/581 624/1045/521 623/1042/518
f 720/1173/581 721/1169/577 625/1040/516 624/1045/521
f 721/1169/577 722/1168/576 626/1041/517 625/1040/516
f 722/1168/576 723/1172/580 627/1044/520 626/1041/517
f 723/1172/580 724/1165/573 628/1036/512 627/1044/520
f 724/1165/573 714/1164/572 618/1037/513 628/1036/512
f 714/1164/572 713/1167/575 617/1038/514 618/1037/513
